<svg width="142" height="140" viewBox="0 0 142 140" fill="none" xmlns="http://www.w3.org/2000/svg">
<g clip-path="url(#clip0_211_2339)">
<path d="M95.5305 34.8399C95.5305 34.8399 98.5621 28.3182 108.209 20.0094C108.209 20.0094 103.325 16.4164 95.5305 19.5977C86.7165 26.1849 81.7948 32.2387 81.7948 32.2387C81.7948 32.2387 70.9316 30.751 59.8907 32.2387C59.8907 32.2387 54.6603 25.9884 46.4825 19.7662C39.1093 16.3884 33.2427 19.9627 33.2427 19.9627C42.721 28.1592 46.0614 34.7557 46.0614 34.7557C10.0473 44.3183 10.7958 75.13 10.7958 75.13C10.7958 75.13 9.40168 88.4914 12.3771 96.847C17.3923 104.36 24.3538 107.523 36.7889 104.36C49.224 101.207 62.1269 90.8119 62.1269 90.8119H62.3421C61.6965 89.3616 61.7433 88.3324 62.2673 87.4903C61.8182 85.2353 61.6872 82.3534 61.6872 78.7698C61.6872 71.8177 62.9316 56.8282 70.81 56.8282C78.6884 56.8282 79.9328 71.8177 79.9328 78.7698C79.9328 82.3908 79.7925 85.3289 79.2966 87.6213C79.8205 88.5008 79.9047 89.5862 79.4556 90.8493C83.6007 93.8716 96.6253 103.528 109.931 105.38C123.292 107.233 129.327 96.8377 129.327 96.8377C129.327 96.8377 132.115 89.7827 130.815 75.3078C130.796 75.3078 132.003 44.5896 95.5305 34.8399ZM54.1924 88.5569C53.7994 89.5675 52.8263 90.2318 51.7503 90.2318H51.7035L30.2017 89.8575C28.7514 89.8295 27.6005 88.6412 27.6286 87.1908C27.6567 85.7593 28.8169 84.6178 30.2485 84.6178H30.2953L44.6953 84.8704L30.0239 71.9019C28.9386 70.9475 28.8356 69.2914 29.7994 68.206C30.7538 67.1206 32.4099 67.0177 33.4953 67.9815L53.4813 85.647C54.3047 86.3768 54.5854 87.5371 54.1924 88.5569ZM59.7597 79.7055C59.6006 79.799 59.4228 79.8458 59.2451 79.8458C58.9082 79.8458 58.5807 79.6774 58.3936 79.3686L54.7351 73.5955C54.4544 73.1277 54.6041 72.5101 55.0719 72.2294C55.5398 71.9487 56.1573 72.0984 56.438 72.5663L60.0965 78.3394C60.3772 78.8072 60.2275 79.4154 59.7597 79.7055ZM87.0439 73.5955L83.3855 79.3686C83.1983 79.6774 82.8708 79.8458 82.534 79.8458C82.3562 79.8458 82.1784 79.799 82.0194 79.7055C81.5515 79.4248 81.3925 78.8072 81.6825 78.3394L85.341 72.5663C85.6217 72.0984 86.2393 71.9394 86.7071 72.2294C87.1749 72.5101 87.3247 73.1183 87.0439 73.5955ZM111.493 89.8575L89.9913 90.2318H89.9445C88.8685 90.2318 87.8954 89.5675 87.5024 88.5569C87.1094 87.5371 87.3901 86.3675 88.2135 85.647L108.209 67.9721C109.294 67.0177 110.95 67.1113 111.905 68.1967C112.859 69.282 112.766 70.9382 111.68 71.8926L97.0089 84.861L111.409 84.6084H111.456C112.878 84.6084 114.048 85.7499 114.076 87.1815C114.094 88.6412 112.934 89.8295 111.493 89.8575Z" fill="#2DBECA"/>
<path d="M109.912 105.38C96.6065 103.537 83.5819 93.8717 79.4369 90.8494C79.4088 90.9337 79.3808 91.0085 79.3433 91.0927C78.3047 93.6471 74.3843 95.6027 70.8381 95.6027C67.2918 95.6027 63.8205 93.8717 62.4544 91.0927C62.4076 90.9991 62.3608 90.9056 62.3234 90.812H62.1082C62.1082 90.812 49.2053 101.207 36.7701 104.361C24.335 107.514 17.3736 104.361 12.3584 96.8471L5.11627 108.637L14.866 114.765V125.385H27.1982C27.1982 125.385 34.2625 130.728 46.052 133.235C57.8415 135.743 62.1082 135.93 71.6708 135.93C81.2334 135.93 89.2147 134.723 97.0089 132.871C104.803 131.018 110.651 128.042 114.459 125.357H126.707V114.747L136.541 108.721L129.299 96.8378C129.308 96.8378 123.273 107.233 109.912 105.38ZM88.8124 116.131C88.6159 116.618 88.2977 117.058 87.7738 117.366C86.6509 118.021 83.0018 120.641 70.7726 120.669C58.2626 120.669 54.4637 117.834 53.6216 117.179C53.2567 116.889 52.9947 116.571 52.817 116.225C52.5924 115.785 52.4988 115.308 52.4988 114.84C52.4988 113.998 52.686 110.63 54.0895 107.823C54.8474 106.307 55.7737 104.903 57.1211 103.603C58.1784 102.592 59.4977 101.638 61.2006 100.758C61.3503 100.683 61.5094 100.599 61.6684 100.524C65.879 98.4658 70.8474 98.4284 70.8474 98.4284C71.886 98.4284 75.0486 98.653 78.9784 100.15C79.4743 100.337 79.9422 100.534 80.3819 100.749C82.0849 101.563 83.4322 102.536 84.5363 103.631C85.4346 104.52 86.1831 105.483 86.8381 106.513C88.5223 109.133 89.0837 113.249 89.0837 114.372C89.0837 114.962 89.0276 115.589 88.8124 116.131Z" fill="white"/>
<path d="M108.2 20.019C114.207 14.8447 122.777 8.97802 134.782 3.56982C134.782 3.56982 119.371 5.15111 104.803 13.4973C101.36 15.4716 98.2533 17.5675 95.5211 19.6073C103.325 16.426 108.2 20.019 108.2 20.019Z" fill="#143A66"/>
<path d="M33.2333 19.9628C33.2333 19.9628 39.1 16.3886 46.4731 19.7663C43.0766 17.1839 39.1655 14.6014 34.9175 12.4774C20.4426 5.23532 14.2204 4.96398 6.79112 3.56982C18.5993 8.81896 27.1701 14.7137 33.2333 19.9628Z" fill="#143A66"/>
<path d="M46.0614 34.7466C46.0614 34.7466 42.7117 28.1501 33.2427 19.9536C27.1795 14.7138 18.6087 8.80968 6.80986 3.56055C6.80986 3.56055 3.84377 16.7442 3.65664 30.5641C3.4695 44.384 5.50927 59.8881 10.8052 75.1116C10.7865 75.1209 10.0473 44.3092 46.0614 34.7466Z" fill="white"/>
<path d="M108.2 20.019C98.5621 28.3278 95.5305 34.8401 95.5305 34.8401C132.003 44.5898 130.796 75.308 130.796 75.308C130.796 75.308 136.27 61.198 137.757 41.4366C139.245 21.6658 134.791 3.56982 134.791 3.56982C122.787 8.97802 114.207 14.8447 108.2 20.019Z" fill="white"/>
<path d="M138.403 3.19494C138.403 3.19494 137.842 -0.426116 133.856 0.041721C129.86 0.509558 114.74 3.00781 100.162 12.1026C85.5842 21.1973 80.3912 28.4394 80.3912 28.4394C80.3912 28.4394 71.1093 27.326 61.2754 28.4394C61.2754 28.4394 50.1409 15.7236 35.6566 8.76221C21.1724 1.80079 11.9934 0.687336 9.02732 0.228856C6.06123 -0.229625 4.19924 0.322423 3.41327 2.59611C3.41327 2.59611 -0.582057 18.5587 0.0729154 35.6348C0.727887 52.7108 3.60041 66.0723 7.1279 75.5413C7.1279 75.5413 5.96766 87.9296 8.47527 96.3788L2.15947 106.681C2.15947 106.681 1.42029 107.607 1.51385 109.001C1.60742 110.395 2.25304 111.041 3.09514 111.696C3.92789 112.341 11.2636 116.711 11.2636 116.711V125.338C11.2636 125.338 11.2636 128.959 14.9782 128.959H26.1595C26.1595 128.959 32.0543 133.6 45.3315 136.753C58.6087 139.906 71.6894 139.906 81.1585 139.074C90.6275 138.241 103.53 136.472 115.591 129.053L126.174 128.959C126.174 128.959 129.888 129.333 130.347 125.431V116.73L138.515 111.789C138.515 111.789 141.116 110.114 139.722 106.961L133.229 96.3788C133.229 96.3788 135.549 89.7916 134.529 75.7752C134.529 75.7752 139.722 61.9459 141.397 42.0816C143.044 22.2172 138.403 3.19494 138.403 3.19494ZM137.757 41.436C136.27 61.2068 130.796 75.3074 130.796 75.3074C132.097 89.7822 129.308 96.8372 129.308 96.8372L136.55 108.72L126.716 114.746V125.338H114.468C110.66 128.033 104.812 130.999 97.0181 132.851C89.224 134.704 81.2427 135.911 71.6801 135.911C62.1175 135.911 57.8508 135.724 46.0613 133.216C34.2718 130.709 27.2075 125.366 27.2075 125.366H14.8753V114.746L5.12556 108.617L12.3677 96.8279C9.40159 88.4723 10.7864 75.1109 10.7864 75.1109C5.49983 59.8875 3.4507 44.3927 3.63784 30.5634C3.82497 16.7341 6.79106 3.55986 6.79106 3.55986C14.2203 4.95401 20.4332 5.23471 34.9174 12.4675C39.1654 14.5915 43.0765 17.1739 46.473 19.7564C54.6508 25.988 59.8906 32.2476 59.8906 32.2476C70.9315 30.7599 81.7947 32.2476 81.7947 32.2476C81.7947 32.2476 86.7164 26.1845 95.5304 19.6067C98.2626 17.5669 101.36 15.4803 104.812 13.4967C119.381 5.14115 134.791 3.56921 134.791 3.56921C134.791 3.56921 139.236 21.6652 137.757 41.436Z" fill="#001D46"/>
<path d="M64.2602 85.7591C66.3749 84.4959 70.838 84.6269 70.838 84.6269C73.3831 84.7486 74.9924 84.9731 76.7889 85.703C77.9398 86.1708 78.7913 86.8164 79.2778 87.6304C79.7737 85.338 79.9141 82.4 79.9141 78.779C79.9141 71.8269 78.81 56.8374 70.7913 56.8374C62.7725 56.8374 61.6684 71.8269 61.6684 78.779C61.6684 82.3626 61.7994 85.2351 62.2485 87.4995C62.6602 86.8351 63.362 86.2924 64.2602 85.7591Z" fill="#1B93AF"/>
<path d="M70.838 95.6028C74.3843 95.6028 78.3047 93.6566 79.3433 91.0928C79.3807 91.0086 79.4088 90.9338 79.4369 90.8496C79.8954 89.5864 79.8018 88.501 79.2778 87.6215C78.7913 86.8074 77.9398 86.1618 76.7889 85.694C74.9924 84.9642 73.3831 84.749 70.838 84.618C70.838 84.618 66.3749 84.4963 64.2603 85.7501C63.362 86.2835 62.6696 86.8262 62.2579 87.4811C61.7339 88.3232 61.6871 89.3525 62.3328 90.8028C62.3702 90.8963 62.417 90.9899 62.4638 91.0835C63.8111 93.8718 67.2825 95.6028 70.838 95.6028Z" fill="#001D46"/>
<path d="M56.438 72.5572C56.1573 72.0893 55.5398 71.9303 55.0719 72.2203C54.6041 72.501 54.445 73.1186 54.7351 73.5864L58.3936 79.3595C58.5807 79.6683 58.9082 79.8367 59.2451 79.8367C59.4228 79.8367 59.6006 79.7899 59.7597 79.6964C60.2275 79.4157 60.3866 78.7981 60.0965 78.3303L56.438 72.5572Z" fill="#001D46"/>
<path d="M86.7071 72.2206C86.2393 71.9399 85.6217 72.0896 85.341 72.5574L81.6825 78.3305C81.4018 78.7984 81.5515 79.4159 82.0194 79.6966C82.1785 79.7902 82.3562 79.837 82.534 79.837C82.8709 79.837 83.1983 79.6685 83.3855 79.3598L87.044 73.5867C87.3247 73.1188 87.175 72.5106 86.7071 72.2206Z" fill="#001D46"/>
<path d="M53.4813 85.6466L33.4859 67.9717C32.4005 67.0173 30.7444 67.1109 29.79 68.1963C28.8356 69.2817 28.9292 70.9378 30.0146 71.8922L44.6859 84.8607L30.2859 84.608H30.2391C28.8169 84.608 27.6473 85.7495 27.6192 87.1811C27.5912 88.6314 28.7421 89.8197 30.1924 89.8478L51.6941 90.2221H51.7409C52.817 90.2221 53.7901 89.5577 54.183 88.5472C54.5854 87.5367 54.3047 86.3764 53.4813 85.6466Z" fill="#001125"/>
<path d="M111.446 84.6181H111.399L96.9995 84.8708L111.671 71.9023C112.756 70.9479 112.859 69.2918 111.895 68.2064C110.941 67.121 109.285 67.0181 108.199 67.9818L88.2041 85.6474C87.3807 86.3772 87.1 87.5374 87.493 88.5573C87.886 89.5679 88.8591 90.2322 89.9351 90.2322H89.9819L111.484 89.8579C112.934 89.8298 114.085 88.6415 114.057 87.1912C114.038 85.7597 112.869 84.6181 111.446 84.6181Z" fill="#001125"/>
<path d="M84.5363 103.631C83.9001 105.035 82.4872 107.823 81.5048 107.542C80.251 107.187 80.3726 101.273 80.382 100.749C79.9422 100.534 79.4744 100.337 78.9784 100.15C75.0486 98.6533 71.8767 98.4287 70.8474 98.4287C70.8474 98.4287 65.879 98.4661 61.6685 100.525C61.5094 100.599 61.3503 100.684 61.2006 100.759C61.2006 103.837 61.1913 107.542 59.9843 107.542C58.8708 107.542 57.3737 104.183 57.1211 103.603C55.7737 104.904 54.8474 106.307 54.0895 107.823C52.686 110.63 52.4989 113.998 52.4989 114.84C52.4989 115.318 52.5924 115.785 52.817 116.225C53.3597 115.084 54.7351 113.559 58.1129 112.221C64.4755 109.694 70.7071 109.975 70.7071 109.975C75.4416 109.975 78.1925 110.274 82.8147 111.94C87.4931 113.624 88.8124 116.132 88.8124 116.132C89.0276 115.58 89.0837 114.962 89.0837 114.373C89.0837 113.25 88.5223 109.133 86.8381 106.513C86.1831 105.493 85.4346 104.52 84.5363 103.631Z" fill="#EB4F69"/>
<path d="M82.8147 111.94C78.1924 110.274 75.4416 109.975 70.7071 109.975C70.7071 109.975 64.4755 109.694 58.1129 112.22C54.7351 113.558 53.3596 115.093 52.817 116.225C52.9947 116.571 53.2567 116.889 53.6216 117.179C54.4637 117.834 58.2626 120.669 70.7725 120.669C83.0018 120.641 86.6509 118.021 87.7738 117.366C88.3071 117.058 88.6252 116.627 88.8124 116.131C88.8124 116.131 87.4931 113.624 82.8147 111.94Z" fill="#FFA2B4"/>
<path d="M59.9842 107.541C61.1913 107.541 61.2006 103.836 61.2006 100.758C59.4977 101.637 58.1784 102.582 57.1211 103.602C57.3737 104.182 58.8708 107.541 59.9842 107.541Z" fill="#DFDFDF"/>
<path d="M81.5047 107.542C82.4872 107.823 83.9 105.034 84.5363 103.631C83.4228 102.536 82.0848 101.554 80.3819 100.749C80.3725 101.273 80.2509 107.186 81.5047 107.542Z" fill="#DFDFDF"/>
</g>
<defs>
<clipPath id="clip0_211_2339">
<rect width="141.75" height="139.543" fill="white"/>
</clipPath>
</defs>
</svg>
