<svg width="142" height="140" viewBox="0 0 142 140" fill="none" xmlns="http://www.w3.org/2000/svg">
<g clip-path="url(#clip0_211_2143)">
<path d="M95.5305 34.8399C95.5305 34.8399 98.5621 28.3182 108.209 20.0094C108.209 20.0094 103.325 16.4164 95.5305 19.5977C86.7165 26.1849 81.7948 32.2387 81.7948 32.2387C81.7948 32.2387 70.9316 30.751 59.8907 32.2387C59.8907 32.2387 54.6603 25.9884 46.4825 19.7662C39.1094 16.3884 33.2427 19.9627 33.2427 19.9627C42.7211 28.1592 46.0614 34.7557 46.0614 34.7557C10.0473 44.3183 10.7958 75.13 10.7958 75.13C10.7958 75.13 9.40169 88.4915 12.3771 96.847C17.3924 104.36 24.3538 107.523 36.7889 104.36C49.0462 101.254 61.762 91.102 62.1176 90.8213C61.3503 88.6037 62.3796 87.4529 64.2696 86.33C66.3843 85.0669 70.8474 85.1979 70.8474 85.1979C73.3925 85.3195 75.0018 85.5441 76.7983 86.2739C79.0346 87.1815 80.1761 88.7721 79.5866 90.971C83.8814 94.1055 96.7656 103.565 109.921 105.399C123.283 107.252 129.318 96.8564 129.318 96.8564C129.318 96.8564 132.106 89.8014 130.805 75.3265C130.796 75.3078 132.003 44.5896 95.5305 34.8399ZM34.6836 102.966C30.5386 104.052 26.8333 103.631 26.4123 102.021C25.9912 100.412 29.0134 98.2318 33.1585 97.1464C37.3035 96.0611 41.0088 96.4821 41.4298 98.0915C41.8509 99.7008 38.838 101.881 34.6836 102.966ZM58.2065 83.3078C57.8322 87.3312 55.3059 88.7347 52.031 89.2961C48.7562 89.8575 45.6684 90.3254 43.1421 90.9803C41.4485 91.4201 39.1655 92.2341 37.0509 92.8985C36.0123 93.226 35.0205 93.5067 34.1596 93.6938C31.5397 94.2552 29.762 93.9745 28.3585 92.571C26.9549 91.1675 24.5222 86.6762 25.4579 79.6587C26.3935 72.6411 30.9783 69.2727 30.9783 69.2727C38.9316 63.4715 45.762 66.5592 47.8205 67.4949C48.0731 67.6072 48.3351 67.7475 48.6065 67.8879C50.6369 68.992 53.0696 70.9382 54.5573 72.9218C56.2416 75.1674 58.5807 79.2844 58.2065 83.3078ZM115.161 102.021C114.74 103.631 111.035 104.052 106.89 102.966C102.745 101.881 99.7224 99.7008 100.143 98.0915C100.564 96.4821 104.27 96.0611 108.415 97.1464C112.56 98.2318 115.582 100.412 115.161 102.021ZM113.336 92.571C111.933 93.9745 110.155 94.2552 107.535 93.6938C106.674 93.5067 105.673 93.226 104.644 92.8985C102.529 92.2341 100.246 91.4201 98.5528 90.9803C96.0264 90.3254 92.9387 89.8575 89.6638 89.2961C86.389 88.7347 83.8627 87.3312 83.4884 83.3078C83.1141 79.2844 85.4533 75.1674 87.1375 72.9218C88.6253 70.9382 91.058 68.992 93.0884 67.8879C93.3598 67.7382 93.6218 67.6072 93.8744 67.4949C95.9329 66.5592 102.763 63.4715 110.717 69.2727C110.717 69.2727 115.301 72.6411 116.237 79.6587C117.173 86.6762 114.74 91.1675 113.336 92.571Z" fill="#2DBECA"/>
<path d="M109.912 105.38C96.7562 103.556 83.872 94.0869 79.5772 90.9524C79.5211 91.1769 79.4369 91.4108 79.3433 91.6541C78.3047 94.2085 74.3843 96.1641 70.8381 96.1641C67.2918 96.1641 63.8205 94.4331 62.4544 91.6541C62.314 91.3547 62.1924 91.0834 62.0988 90.812C61.7433 91.1021 49.0275 101.245 36.7701 104.351C24.335 107.504 17.3736 104.351 12.3584 96.8378L5.11627 108.627L14.866 114.756V125.376H27.1982C27.1982 125.376 34.2625 130.719 46.052 133.226C57.8415 135.734 62.1082 135.921 71.6708 135.921C81.2334 135.921 89.2147 134.714 97.0089 132.861C104.803 131.009 110.651 128.033 114.459 125.348H126.707V114.747L136.541 108.721L129.299 96.8378C129.308 96.8378 123.273 107.233 109.912 105.38ZM90.4591 112.632C90.2907 112.763 90.1223 112.894 89.9539 113.016C87.4463 114.868 85.3878 115.664 82.3375 116.131C79.0907 116.627 70.7258 116.973 70.7258 116.973C70.7258 116.973 63.8579 117.002 59.61 116.169C55.6801 115.402 54.4263 115.055 51.6941 112.931C51.4696 112.763 51.2357 112.576 50.9924 112.379C47.7456 109.759 48.2415 106.138 49.2427 105.016C50.2439 103.893 50.6181 102.892 56.2322 104.389C61.8556 105.886 70.7164 106.045 70.7164 106.045C78.7071 106.073 84.1995 104.641 87.4463 103.771C90.6931 102.901 92.5644 104.398 92.9387 106.269C93.3317 108.141 93.2007 110.508 90.4591 112.632Z" fill="white"/>
<path d="M108.2 20.019C114.207 14.8447 122.777 8.97802 134.782 3.56982C134.782 3.56982 119.371 5.15111 104.803 13.4973C101.36 15.4716 98.2533 17.5675 95.5211 19.6073C103.325 16.426 108.2 20.019 108.2 20.019Z" fill="#143A66"/>
<path d="M33.2333 19.9628C33.2333 19.9628 39.1 16.3886 46.4731 19.7663C43.0766 17.1839 39.1655 14.6014 34.9175 12.4774C20.4426 5.23532 14.2204 4.96398 6.79114 3.56982C18.5993 8.81896 27.1701 14.7137 33.2333 19.9628Z" fill="#143A66"/>
<path d="M46.0614 34.7466C46.0614 34.7466 42.7117 28.1501 33.2427 19.9536C27.1795 14.7138 18.6087 8.80968 6.80987 3.56055C6.80987 3.56055 3.84378 16.7442 3.65665 30.5641C3.46951 44.384 5.50928 59.8881 10.8052 75.1116C10.7865 75.1209 10.0473 44.3092 46.0614 34.7466Z" fill="white"/>
<path d="M108.2 20.019C98.5621 28.3278 95.5305 34.8401 95.5305 34.8401C132.003 44.5898 130.796 75.308 130.796 75.308C130.796 75.308 136.27 61.198 137.757 41.4366C139.245 21.6658 134.791 3.56982 134.791 3.56982C122.787 8.97802 114.207 14.8447 108.2 20.019Z" fill="white"/>
<path d="M138.403 3.19494C138.403 3.19494 137.842 -0.426116 133.856 0.041721C129.86 0.509558 114.74 3.00781 100.162 12.1026C85.5842 21.1973 80.3912 28.4394 80.3912 28.4394C80.3912 28.4394 71.1093 27.326 61.2754 28.4394C61.2754 28.4394 50.1409 15.7236 35.6566 8.76221C21.1724 1.80079 11.9934 0.687336 9.02732 0.228856C6.06123 -0.229625 4.19924 0.322423 3.41327 2.59611C3.41327 2.59611 -0.582057 18.5587 0.0729154 35.6348C0.727887 52.7108 3.60041 66.0723 7.1279 75.5413C7.1279 75.5413 5.96766 87.9296 8.47527 96.3788L2.15947 106.681C2.15947 106.681 1.42029 107.607 1.51385 109.001C1.60742 110.395 2.25304 111.041 3.09514 111.696C3.92789 112.341 11.2636 116.711 11.2636 116.711V125.338C11.2636 125.338 11.2636 128.959 14.9782 128.959H26.1595C26.1595 128.959 32.0543 133.6 45.3315 136.753C58.6087 139.906 71.6894 139.906 81.1585 139.074C90.6275 138.241 103.53 136.472 115.591 129.053L126.174 128.959C126.174 128.959 129.888 129.333 130.347 125.431V116.73L138.515 111.789C138.515 111.789 141.116 110.114 139.722 106.961L133.229 96.3788C133.229 96.3788 135.549 89.7916 134.529 75.7752C134.529 75.7752 139.722 61.9459 141.397 42.0816C143.044 22.2172 138.403 3.19494 138.403 3.19494ZM137.757 41.436C136.27 61.2068 130.796 75.3074 130.796 75.3074C132.097 89.7822 129.308 96.8372 129.308 96.8372L136.55 108.72L126.716 114.746V125.338H114.468C110.66 128.033 104.812 130.999 97.0181 132.851C89.224 134.704 81.2427 135.911 71.6801 135.911C62.1175 135.911 57.8508 135.724 46.0613 133.216C34.2718 130.709 27.2075 125.366 27.2075 125.366H14.8753V114.746L5.12556 108.617L12.3677 96.8279C9.40159 88.4723 10.7864 75.1109 10.7864 75.1109C5.49983 59.8875 3.4507 44.3927 3.63784 30.5634C3.82497 16.7341 6.79106 3.55986 6.79106 3.55986C14.2203 4.95401 20.4332 5.23471 34.9174 12.4675C39.1654 14.5915 43.0765 17.1739 46.473 19.7564C54.6508 25.988 59.8906 32.2476 59.8906 32.2476C70.9315 30.7599 81.7947 32.2476 81.7947 32.2476C81.7947 32.2476 86.7164 26.1845 95.5304 19.6067C98.2626 17.5669 101.36 15.4803 104.812 13.4967C119.381 5.14115 134.791 3.56921 134.791 3.56921C134.791 3.56921 139.236 21.6652 137.757 41.436Z" fill="#001D46"/>
<path d="M70.838 96.1638C74.3843 96.1638 78.3047 94.2176 79.3433 91.6539C79.4369 91.4106 79.5211 91.186 79.5772 90.9521C80.1574 88.7533 79.0252 87.1626 76.7889 86.255C74.9924 85.5252 73.3831 85.31 70.838 85.179C70.838 85.179 66.3749 85.0574 64.2603 86.3112C62.3702 87.4433 61.341 88.5942 62.1082 90.8024C62.2018 91.0644 62.3141 91.3451 62.4638 91.6445C63.8111 94.4328 67.2825 96.1638 70.838 96.1638Z" fill="#001D46"/>
<path d="M87.4556 103.771C84.2088 104.641 78.7164 106.082 70.7258 106.045C70.7258 106.045 61.8556 105.885 56.2415 104.388C50.6181 102.891 50.2438 103.892 49.252 105.015C48.2602 106.138 47.755 109.759 51.0017 112.379C51.245 112.576 51.4789 112.763 51.7035 112.931C59.6474 108.112 70.7351 108.505 70.7351 108.505C84.5925 108.505 89.9632 113.006 89.9632 113.006C90.1316 112.884 90.3001 112.753 90.4685 112.622C93.2194 110.498 93.341 108.131 92.9667 106.25C92.5738 104.388 90.7024 102.891 87.4556 103.771Z" fill="#EB4F69"/>
<path d="M51.6942 112.941C54.4263 115.065 55.6801 115.402 59.61 116.178C63.8579 117.011 70.7258 116.983 70.7258 116.983C70.7258 116.983 79.0907 116.637 82.3375 116.141C85.3878 115.673 87.4369 114.878 89.9539 113.025C89.9539 113.025 84.5831 108.524 70.7258 108.524C70.7258 108.515 59.638 108.122 51.6942 112.941Z" fill="#FFA2B4"/>
<path d="M48.6064 67.8877C47.3152 67.5135 45.9585 67.3076 44.5456 67.3076C40.1853 67.3076 36.2836 69.2445 33.6918 72.2854C34.2812 72.0328 34.9269 71.8924 35.6099 71.8924C38.2672 71.8924 40.4286 74.0538 40.4286 76.7111C40.4286 79.3685 38.2672 81.5299 35.6099 81.5299C33.2614 81.5299 31.3058 79.855 30.8754 77.6281C30.576 78.7509 30.4169 79.9392 30.4169 81.1556C30.4169 86.1053 33.0649 90.4468 37.0508 92.8983C39.1655 92.234 41.4485 91.4199 43.1421 90.9802C45.6684 90.3252 48.7561 89.8574 52.031 89.296C55.3058 88.7346 57.8322 87.3311 58.2064 83.3076C58.5807 79.2843 56.2415 75.1673 54.5573 72.9217C53.0696 70.938 50.6368 68.9918 48.6064 67.8877Z" fill="#001125"/>
<path d="M30.4169 81.1555C30.4169 79.9391 30.576 78.7508 30.8754 77.628C31.3058 79.8456 33.2614 81.5298 35.6099 81.5298C38.2672 81.5298 40.4286 79.3684 40.4286 76.711C40.4286 74.0537 38.2672 71.8923 35.6099 71.8923C34.9269 71.8923 34.2812 72.0327 33.6918 72.2853C36.2836 69.2444 40.1854 67.3075 44.5456 67.3075C45.9585 67.3075 47.3245 67.5134 48.6064 67.8876C48.3351 67.7379 48.0731 67.6069 47.8205 67.4946C45.762 66.559 38.9315 63.4712 30.9783 69.2724C30.9783 69.2724 26.3935 72.6409 25.4578 79.6584C24.5222 86.676 26.9549 91.1672 28.3584 92.5707C29.7619 93.9742 31.5397 94.2549 34.1596 93.6935C35.0204 93.5064 36.0216 93.2257 37.0508 92.8982C33.0649 90.4467 30.4169 86.1052 30.4169 81.1555Z" fill="white"/>
<path d="M111.278 81.1556C111.278 79.9392 111.119 78.7509 110.819 77.6281C110.389 79.8457 108.433 81.5299 106.085 81.5299C103.428 81.5299 101.266 79.3685 101.266 76.7111C101.266 74.0538 103.428 71.8924 106.085 71.8924C106.768 71.8924 107.414 72.0328 108.003 72.2854C105.411 69.2445 101.509 67.3076 97.1492 67.3076C95.7363 67.3076 94.3702 67.5135 93.0884 67.8877C91.058 68.9918 88.6252 70.938 87.1375 72.9217C85.4533 75.1673 83.1141 79.2843 83.4884 83.3076C83.8626 87.3311 86.3889 88.7346 89.6638 89.296C92.9387 89.8574 96.0264 90.3252 98.5527 90.9802C100.246 91.4199 102.529 92.234 104.644 92.8983C108.63 90.4468 111.278 86.1053 111.278 81.1556Z" fill="#001125"/>
<path d="M110.717 69.2724C102.763 63.4712 95.9329 66.559 93.8744 67.4946C93.6217 67.6069 93.3598 67.7473 93.0884 67.8876C94.3796 67.5134 95.7364 67.3075 97.1492 67.3075C101.509 67.3075 105.411 69.2444 108.003 72.2853C107.414 72.0327 106.768 71.8923 106.085 71.8923C103.428 71.8923 101.266 74.0537 101.266 76.711C101.266 79.3684 103.428 81.5298 106.085 81.5298C108.433 81.5298 110.389 79.8549 110.819 77.628C111.119 78.7508 111.278 79.9391 111.278 81.1555C111.278 86.1052 108.63 90.4467 104.644 92.8982C105.683 93.2257 106.674 93.5064 107.535 93.6935C110.155 94.2549 111.933 93.9742 113.336 92.5707C114.74 91.1672 117.173 86.676 116.237 79.6584C115.301 72.6409 110.717 69.2724 110.717 69.2724Z" fill="white"/>
<path d="M34.6937 102.974C38.8378 101.888 41.8564 99.7071 41.4361 98.1025C41.0157 96.4978 37.3155 96.0771 33.1714 97.1627C29.0273 98.2483 26.0086 100.429 26.429 102.034C26.8494 103.639 30.5496 104.059 34.6937 102.974Z" fill="#EB4F69"/>
<path d="M115.17 102.011C115.591 100.407 112.572 98.2258 108.428 97.1401C104.284 96.0545 100.584 96.4752 100.163 98.0799C99.7428 99.6845 102.761 101.865 106.906 102.951C111.05 104.037 114.75 103.616 115.17 102.011Z" fill="#EB4F69"/>
</g>
<defs>
<clipPath id="clip0_211_2143">
<rect width="141.75" height="139.543" fill="white"/>
</clipPath>
</defs>
</svg>
