<svg width="142" height="140" viewBox="0 0 142 140" fill="none" xmlns="http://www.w3.org/2000/svg">
<g clip-path="url(#clip0_211_2256)">
<path d="M95.5305 34.8399C95.5305 34.8399 98.5621 28.3182 108.209 20.0094C108.209 20.0094 103.325 16.4164 95.5305 19.5977C86.7165 26.1849 81.7948 32.2387 81.7948 32.2387C81.7948 32.2387 70.9316 30.751 59.8907 32.2387C59.8907 32.2387 54.6603 25.9884 46.4825 19.7662C39.1094 16.3884 33.2427 19.9627 33.2427 19.9627C42.7211 28.1592 46.0614 34.7557 46.0614 34.7557C10.0473 44.3183 10.7958 75.13 10.7958 75.13C10.7958 75.13 9.40169 88.4914 12.3771 96.847C17.3924 104.36 24.3538 107.523 36.7889 104.36C48.5129 101.385 60.6579 91.9722 62.0053 90.9055C61.472 88.9312 62.4919 87.8458 64.2696 86.7885C66.3843 85.5254 70.8474 85.6563 70.8474 85.6563C73.3925 85.778 75.0018 86.0025 76.7983 86.7324C78.8942 87.5838 80.0264 89.0341 79.6802 91.0271C84.0592 94.2178 96.8592 103.575 109.921 105.39C123.283 107.242 129.318 96.847 129.318 96.847C129.318 96.847 132.106 89.792 130.805 75.3172C130.796 75.3078 132.003 44.5896 95.5305 34.8399ZM54.5199 88.0985C54.1737 89.1558 53.2006 89.8856 52.0872 89.9137L33.0555 90.3721H32.99C31.5678 90.3721 30.4076 89.24 30.3702 87.8178C30.3327 86.3675 31.4836 85.1698 32.9245 85.1324L44.4708 84.8517L30.5666 74.3066C29.4158 73.4364 29.1912 71.7897 30.0614 70.6388C30.9316 69.4879 32.5784 69.2633 33.7292 70.1335L53.603 85.2072C54.4918 85.8809 54.8568 87.0411 54.5199 88.0985ZM60.7702 66.8961C60.686 67.5511 59.7316 70.0025 57.1959 70.5733C54.6603 71.144 52.3866 70.2271 51.5725 68.9358C51.5725 68.9358 50.955 67.9908 51.479 67.1674C52.003 66.344 54.0427 66.316 55.362 66.0914C56.6813 65.8668 57.5702 65.8201 59.3106 65.137C61.0509 64.454 60.8544 66.2411 60.7702 66.8961ZM75.3855 83.523C74.5059 83.2704 72.148 83.0645 70.7445 83.0645C69.341 83.0645 67.1889 83.3078 66.1597 83.4949C65.1305 83.6821 64.1012 82.84 65.6919 80.5943C67.2825 78.3487 70.7445 78.4423 70.7445 78.4423C71.2123 78.4423 74.7679 78.4423 76.1714 80.7815C77.4814 82.971 76.265 83.7756 75.3855 83.523ZM84.4709 70.5733C81.9352 70.0025 80.9808 67.5511 80.8966 66.8961C80.8124 66.2411 80.6159 64.454 82.3562 65.137C84.0966 65.8294 84.9855 65.8762 86.3048 66.0914C87.6241 66.316 89.6732 66.3347 90.1878 67.1674C90.7024 68.0002 90.0943 68.9358 90.0943 68.9358C89.2709 70.2271 87.0065 71.144 84.4709 70.5733ZM111.147 74.3066L97.2428 84.8517L108.789 85.1324C110.239 85.1698 111.381 86.3675 111.343 87.8178C111.306 89.24 110.146 90.3721 108.724 90.3721H108.658L89.6264 89.9137C88.513 89.8856 87.5399 89.1558 87.1937 88.0985C86.8475 87.0411 87.2124 85.8809 88.1013 85.2072L107.975 70.1335C109.126 69.2633 110.773 69.4879 111.643 70.6388C112.532 71.7897 112.307 73.4364 111.147 74.3066Z" fill="#2DBECA"/>
<path d="M109.912 105.38C96.8498 103.565 84.0498 94.2082 79.6708 91.0176C79.6053 91.3731 79.5024 91.738 79.3433 92.1217C78.3047 94.676 74.3843 96.6316 70.8381 96.6316C67.2918 96.6316 63.8205 94.9006 62.4544 92.1217C62.2392 91.6819 62.0895 91.2795 61.9866 90.9053C60.6392 91.9719 48.5035 101.385 36.7701 104.36C24.335 107.513 17.3736 104.36 12.3584 96.8468L5.11627 108.636L14.866 114.765V125.385H27.1982C27.1982 125.385 34.2625 130.728 46.052 133.235C57.8415 135.743 62.1082 135.93 71.6708 135.93C81.2334 135.93 89.2147 134.723 97.0089 132.87C104.803 131.018 110.651 128.042 114.459 125.357H126.707V114.746L136.541 108.721L129.299 96.8374C129.308 96.8374 123.273 107.233 109.912 105.38ZM48.2415 119.659C48.1479 119.733 48.0357 119.771 47.914 119.771C47.7643 119.771 47.6146 119.705 47.5117 119.584C46.576 118.423 46.3234 116.066 46.314 115.963C46.2859 115.682 46.4918 115.429 46.7725 115.401C47.0532 115.373 47.3058 115.579 47.3339 115.86C47.3994 116.459 47.6895 118.171 48.307 118.938C48.5035 119.163 48.4661 119.481 48.2415 119.659ZM91.8907 116.15C91.7317 118.433 89.5235 119.387 87.9702 119.378C87.6802 119.378 87.4088 119.34 87.1843 119.266C86.6697 119.107 85.5188 118.779 83.8533 118.423C80.9153 117.797 76.3492 117.085 70.7445 117.085C65.4579 117.085 60.9105 117.797 57.8602 118.405C55.8392 118.807 54.4825 119.163 53.9959 119.237C53.9211 119.247 53.8368 119.256 53.7526 119.266C52.4427 119.34 49.9538 118.611 49.7854 116.056C49.7479 115.457 49.6918 114.812 49.7105 114.101C49.7573 111.593 50.6088 108.393 55.493 104.454C56.8871 103.331 58.4216 102.461 59.9655 101.797C65.3644 99.448 70.8661 99.5228 70.8661 99.5228C73.2427 99.6164 77.2381 99.8223 81.7854 101.899C83.2077 102.554 84.686 103.387 86.1831 104.454C86.2018 104.463 86.2205 104.482 86.2393 104.491C91.0673 107.972 91.9188 111.453 91.9656 114.101C91.9843 114.859 91.9282 115.551 91.8907 116.15ZM95.4089 115.972C95.3995 116.075 95.1469 118.433 94.2112 119.593C94.1083 119.715 93.9586 119.78 93.8089 119.78C93.6966 119.78 93.5843 119.743 93.4814 119.668C93.2568 119.49 93.2287 119.163 93.4065 118.947C94.0241 118.18 94.3141 116.468 94.3796 115.869C94.4077 115.588 94.6603 115.383 94.941 115.411C95.2311 115.429 95.4369 115.682 95.4089 115.972Z" fill="white"/>
<path d="M108.2 20.019C114.207 14.8447 122.777 8.97802 134.782 3.56982C134.782 3.56982 119.371 5.15111 104.803 13.4973C101.36 15.4716 98.2533 17.5675 95.5211 19.6073C103.325 16.426 108.2 20.019 108.2 20.019Z" fill="#143A66"/>
<path d="M33.2333 19.9628C33.2333 19.9628 39.1 16.3886 46.4731 19.7663C43.0766 17.1839 39.1655 14.6014 34.9175 12.4774C20.4426 5.23532 14.2204 4.96398 6.79114 3.56982C18.5993 8.81896 27.1701 14.7137 33.2333 19.9628Z" fill="#143A66"/>
<path d="M46.0614 34.7466C46.0614 34.7466 42.7116 28.1501 33.2426 19.9536C27.1794 14.7138 18.6087 8.80968 6.80981 3.56055C6.80981 3.56055 3.84372 16.7442 3.65659 30.5641C3.46945 44.384 5.50922 59.8881 10.8051 75.1116C10.7864 75.1209 10.0472 44.3092 46.0614 34.7466Z" fill="white"/>
<path d="M108.2 20.019C98.5621 28.3278 95.5305 34.8401 95.5305 34.8401C132.003 44.5898 130.796 75.308 130.796 75.308C130.796 75.308 136.27 61.198 137.757 41.4366C139.245 21.6658 134.791 3.56982 134.791 3.56982C122.787 8.97802 114.207 14.8447 108.2 20.019Z" fill="white"/>
<path d="M138.403 3.19494C138.403 3.19494 137.842 -0.426116 133.856 0.041721C129.86 0.509558 114.74 3.00781 100.162 12.1026C85.5842 21.1973 80.3912 28.4394 80.3912 28.4394C80.3912 28.4394 71.1093 27.326 61.2754 28.4394C61.2754 28.4394 50.1409 15.7236 35.6566 8.76221C21.1724 1.80079 11.9934 0.687336 9.02732 0.228856C6.06123 -0.229625 4.19924 0.322423 3.41327 2.59611C3.41327 2.59611 -0.582057 18.5587 0.0729154 35.6348C0.727887 52.7108 3.60041 66.0723 7.1279 75.5413C7.1279 75.5413 5.96766 87.9296 8.47527 96.3788L2.15947 106.681C2.15947 106.681 1.42029 107.607 1.51385 109.001C1.60742 110.395 2.25304 111.041 3.09514 111.696C3.92789 112.341 11.2636 116.711 11.2636 116.711V125.338C11.2636 125.338 11.2636 128.959 14.9782 128.959H26.1595C26.1595 128.959 32.0543 133.6 45.3315 136.753C58.6087 139.906 71.6894 139.906 81.1585 139.074C90.6275 138.241 103.53 136.472 115.591 129.053L126.174 128.959C126.174 128.959 129.888 129.333 130.347 125.431V116.73L138.515 111.789C138.515 111.789 141.116 110.114 139.722 106.961L133.229 96.3788C133.229 96.3788 135.549 89.7916 134.529 75.7752C134.529 75.7752 139.722 61.9459 141.397 42.0816C143.044 22.2172 138.403 3.19494 138.403 3.19494ZM137.757 41.436C136.27 61.2068 130.796 75.3074 130.796 75.3074C132.097 89.7822 129.308 96.8372 129.308 96.8372L136.55 108.72L126.716 114.746V125.338H114.468C110.66 128.033 104.812 130.999 97.0181 132.851C89.224 134.704 81.2427 135.911 71.6801 135.911C62.1175 135.911 57.8508 135.724 46.0613 133.216C34.2718 130.709 27.2075 125.366 27.2075 125.366H14.8753V114.746L5.12556 108.617L12.3677 96.8279C9.40159 88.4723 10.7864 75.1109 10.7864 75.1109C5.49983 59.8875 3.4507 44.3927 3.63784 30.5634C3.82497 16.7341 6.79106 3.55986 6.79106 3.55986C14.2203 4.95401 20.4332 5.23471 34.9174 12.4675C39.1654 14.5915 43.0765 17.1739 46.473 19.7564C54.6508 25.988 59.8906 32.2476 59.8906 32.2476C70.9315 30.7599 81.7947 32.2476 81.7947 32.2476C81.7947 32.2476 86.7164 26.1845 95.5304 19.6067C98.2626 17.5669 101.36 15.4803 104.812 13.4967C119.381 5.14115 134.791 3.56921 134.791 3.56921C134.791 3.56921 139.236 21.6652 137.757 41.436Z" fill="#001D46"/>
<path d="M70.838 96.6316C74.3842 96.6316 78.3047 94.6854 79.3433 92.1216C79.5024 91.738 79.6053 91.3731 79.6708 91.0175C80.017 89.0339 78.8942 87.5743 76.7889 86.7228C74.9924 85.993 73.3831 85.7778 70.838 85.6468C70.838 85.6468 66.3749 85.5251 64.2602 86.7789C62.4825 87.8456 61.4626 88.931 61.9959 90.8959C62.0988 91.2702 62.2485 91.6725 62.4638 92.1123C63.8111 94.9006 67.2825 96.6316 70.838 96.6316Z" fill="#001D46"/>
<path d="M59.3105 65.1369C57.5702 65.8293 56.6813 65.8761 55.362 66.0913C54.0427 66.3158 51.9936 66.3345 51.4789 67.1673C50.9643 68 51.5725 68.9357 51.5725 68.9357C52.3865 70.227 54.6602 71.1346 57.1959 70.5732C59.7316 70.0024 60.686 67.5509 60.7702 66.896C60.8544 66.241 61.0509 64.4538 59.3105 65.1369Z" fill="#0295AF"/>
<path d="M90.0848 68.9359C90.0848 68.9359 90.7024 67.9909 90.1784 67.1675C89.6544 66.3441 87.6147 66.316 86.2954 66.0915C84.9761 65.8669 84.0872 65.8201 82.3468 65.1371C80.6065 64.4447 80.8029 66.2412 80.8872 66.8961C80.9714 67.5511 81.9258 70.0026 84.4614 70.5733C87.0065 71.1441 89.2708 70.2271 90.0848 68.9359Z" fill="#0295AF"/>
<path d="M53.6029 85.2071L33.7292 70.1334C32.5783 69.2632 30.9315 69.4878 30.0613 70.6386C29.1912 71.7895 29.4157 73.4363 30.5666 74.3065L44.4707 84.8515L32.9245 85.1322C31.4742 85.1697 30.3327 86.3673 30.3701 87.8176C30.4075 89.2398 31.5678 90.372 32.99 90.372H33.0555L52.0871 89.9135C53.2006 89.8855 54.1737 89.1556 54.5199 88.0983C54.8567 87.041 54.4918 85.8808 53.6029 85.2071Z" fill="#001125"/>
<path d="M107.984 70.1335L88.1106 85.2072C87.2217 85.8809 86.8568 87.0411 87.203 88.0984C87.5492 89.1557 88.5223 89.8856 89.6358 89.9136L108.667 90.3721H108.733C110.155 90.3721 111.315 89.2399 111.353 87.8177C111.39 86.3674 110.239 85.1697 108.798 85.1323L97.2522 84.8516L111.156 74.3066C112.307 73.4364 112.532 71.7896 111.662 70.6387C110.782 69.4879 109.135 69.2539 107.984 70.1335Z" fill="#001125"/>
<path d="M70.7445 78.442C70.7445 78.442 67.2825 78.3484 65.6919 80.594C64.1012 82.8396 65.1305 83.6817 66.1597 83.4946C67.1889 83.3075 69.341 83.0642 70.7445 83.0642C72.148 83.0642 74.4966 83.2607 75.3854 83.5227C76.2743 83.7847 77.4907 82.9706 76.1714 80.7811C74.7679 78.442 71.2123 78.442 70.7445 78.442Z" fill="#0295AF"/>
<path d="M70.7445 108.992C86.1831 108.992 91.9656 114.11 91.9656 114.11C91.9188 111.462 91.0674 107.981 86.2393 104.5C86.0334 104.931 84.2276 108.748 83.0767 108.486C81.879 108.206 81.8042 104.744 81.7855 101.909C77.2474 99.8314 73.2428 99.6162 70.8661 99.532C70.8661 99.532 65.355 99.4572 59.9655 101.806C59.9468 104.669 59.8907 108.206 58.6743 108.486C57.4579 108.767 55.493 104.463 55.493 104.463C50.5994 108.402 49.7573 111.602 49.7105 114.11C57.0182 108.879 70.7445 108.992 70.7445 108.992Z" fill="#EB4F69"/>
<path d="M70.7445 108.992C70.7445 108.992 57.0181 108.88 49.7105 114.101C49.7012 114.802 49.748 115.457 49.7854 116.056C49.9632 118.601 52.4427 119.34 53.7526 119.266C53.8836 118.171 54.6509 114.653 55.6801 114.653C56.7094 114.653 57.8603 118.405 57.8603 118.405C60.9106 117.797 65.4486 117.085 70.7445 117.085C76.3492 117.085 80.9153 117.797 83.8533 118.423L83.8626 118.405C83.8626 118.405 85.0135 114.653 86.0428 114.653C87.072 114.653 87.8299 118.162 87.9703 119.266C87.9703 119.303 87.9796 119.34 87.9796 119.378C89.5235 119.397 91.741 118.433 91.9001 116.15C91.9375 115.551 91.9937 114.859 91.9749 114.101C91.9656 114.101 86.1831 108.992 70.7445 108.992Z" fill="#FFA2B4"/>
<path d="M58.6743 108.478C59.8907 108.197 59.9469 104.651 59.9656 101.797C58.4217 102.471 56.8872 103.331 55.493 104.454C55.493 104.454 57.458 108.758 58.6743 108.478Z" fill="#DFDFDF"/>
<path d="M83.0766 108.477C84.2275 108.739 86.0333 104.931 86.2392 104.491C86.2205 104.482 86.2018 104.463 86.183 104.454C84.686 103.378 83.2076 102.545 81.7854 101.899C81.8041 104.735 81.8696 108.196 83.0766 108.477Z" fill="#DFDFDF"/>
<path d="M55.6801 114.653C54.6509 114.653 53.893 118.162 53.7527 119.266C53.8369 119.257 53.9211 119.257 53.9959 119.238C54.4825 119.163 55.8392 118.808 57.8603 118.405C57.8603 118.405 56.7094 114.653 55.6801 114.653Z" fill="#DFDFDF"/>
<path d="M86.0428 114.653C85.0135 114.653 83.8627 118.405 83.8627 118.405L83.8533 118.424C85.5188 118.78 86.6697 119.107 87.1843 119.266C87.4089 119.332 87.6802 119.369 87.9703 119.378C87.9703 119.341 87.9703 119.304 87.9609 119.266C87.8299 118.162 87.072 114.653 86.0428 114.653Z" fill="#DFDFDF"/>
<path d="M47.3526 115.86C47.3245 115.58 47.0719 115.374 46.7912 115.402C46.5105 115.43 46.3047 115.683 46.3327 115.963C46.3421 116.066 46.5947 118.424 47.5304 119.584C47.6333 119.706 47.783 119.772 47.9327 119.772C48.045 119.772 48.1573 119.734 48.2602 119.659C48.4848 119.482 48.5129 119.154 48.3351 118.939C47.7082 118.172 47.4088 116.459 47.3526 115.86Z" fill="#D0D0D0"/>
<path d="M94.941 115.402C94.6603 115.374 94.4077 115.58 94.3796 115.86C94.3141 116.459 94.024 118.172 93.4065 118.939C93.2287 119.163 93.2661 119.482 93.4813 119.659C93.5749 119.734 93.6872 119.772 93.8088 119.772C93.9585 119.772 94.1082 119.706 94.2112 119.584C95.1468 118.424 95.3995 116.066 95.4088 115.963C95.4369 115.683 95.231 115.43 94.941 115.402Z" fill="#D0D0D0"/>
</g>
<defs>
<clipPath id="clip0_211_2256">
<rect width="141.75" height="139.543" fill="white"/>
</clipPath>
</defs>
</svg>
