<svg width="142" height="140" viewBox="0 0 142 140" fill="none" xmlns="http://www.w3.org/2000/svg">
<g clip-path="url(#clip0_211_2197)">
<path d="M95.5305 34.8399C95.5305 34.8399 98.5621 28.3182 108.209 20.0094C108.209 20.0094 103.325 16.4164 95.5305 19.5977C86.7165 26.1849 81.7948 32.2387 81.7948 32.2387C81.7948 32.2387 70.9316 30.751 59.8907 32.2387C59.8907 32.2387 54.6603 25.9884 46.4825 19.7662C39.1093 16.3884 33.2427 19.9627 33.2427 19.9627C42.721 28.1592 46.0614 34.7557 46.0614 34.7557C10.0473 44.3183 10.7958 75.13 10.7958 75.13C10.7958 75.13 9.40168 88.4915 12.3771 96.847C17.3923 104.36 24.3538 107.523 36.7889 104.36C49.0462 101.254 61.762 91.102 62.1176 90.8213C61.3503 88.6037 62.3796 87.4529 64.2696 86.33C66.3843 85.0669 70.8474 85.1979 70.8474 85.1979C73.3925 85.3195 75.0018 85.5441 76.7983 86.2739C79.0346 87.1815 80.1761 88.7721 79.5866 90.971C83.8814 94.1055 96.7656 103.565 109.921 105.399C123.283 107.252 129.318 96.8564 129.318 96.8564C129.318 96.8564 132.106 89.8014 130.805 75.3265C130.796 75.3078 132.003 44.5896 95.5305 34.8399ZM22.6976 100.758C22.6976 100.861 22.6134 100.945 22.5105 100.945C22.4076 100.945 22.3233 100.861 22.3233 100.758V59.4949C22.3233 59.392 22.4076 59.3078 22.5105 59.3078C22.6134 59.3078 22.6976 59.392 22.6976 59.4949V100.758ZM55.3059 91.5417C52.7795 94.2552 50.3468 96.323 43.3292 97.9979C41.6263 98.4002 40.1292 98.6342 38.8006 98.7277V99.7757C38.8006 99.8786 38.7164 99.9628 38.6134 99.9628C38.5105 99.9628 38.4263 99.8786 38.4263 99.7757V98.7464C37.0321 98.8213 35.8251 98.7371 34.7772 98.5499V100.889C34.7772 100.992 34.693 101.076 34.59 101.076C34.4871 101.076 34.4029 100.992 34.4029 100.889V98.4751C32.9432 98.1757 31.7643 97.6704 30.7538 97.109V101.357C30.7538 101.46 30.6696 101.544 30.5666 101.544C30.4637 101.544 30.3795 101.46 30.3795 101.357V96.8938C30.0146 96.6786 29.6777 96.4634 29.3409 96.2482C28.3959 95.6306 27.4883 94.5172 26.721 93.0763V101.553C26.721 101.656 26.6368 101.741 26.5339 101.741C26.431 101.741 26.3467 101.656 26.3467 101.553V92.309C24.6906 88.6692 23.9327 83.2985 25.3643 78.068C25.514 77.5253 25.6824 77.0107 25.8695 76.5242C26.0193 76.1312 26.1783 75.7663 26.3467 75.4014V61.5066C26.3467 61.4037 26.431 61.3195 26.5339 61.3195C26.6368 61.3195 26.721 61.4037 26.721 61.5066V74.6715C27.7877 72.7066 29.1257 71.2657 30.3701 70.2364V59.4481C30.3701 59.3452 30.4544 59.261 30.5573 59.261C30.6602 59.261 30.7444 59.3452 30.7444 59.4481V69.9277C32.597 68.4867 34.1596 67.9627 34.1596 67.9627C34.2345 67.9253 34.3187 67.8785 34.4029 67.8411V61.5066C34.4029 61.4037 34.4871 61.3195 34.59 61.3195C34.693 61.3195 34.7772 61.4037 34.7772 61.5066V67.6727C35.7409 67.261 36.9854 66.9242 38.4263 66.8119V59.4481C38.4263 59.3452 38.5105 59.261 38.6134 59.261C38.7164 59.261 38.8006 59.3452 38.8006 59.4481V66.7838C39.9234 66.7277 41.1491 66.8025 42.4497 67.0832V61.5066C42.4497 61.4037 42.5339 61.3195 42.6368 61.3195C42.7398 61.3195 42.824 61.4037 42.824 61.5066V67.1674C43.9748 67.4481 45.1819 67.8785 46.417 68.5242C46.4357 68.5335 46.4544 68.5429 46.4731 68.5522V59.4481C46.4731 59.3452 46.5573 59.261 46.6602 59.261C46.7632 59.261 46.8474 59.3452 46.8474 59.4481V68.7581C47.4556 69.0949 48.0357 69.4411 48.5877 69.8154C49.2614 70.2739 49.8977 70.7511 50.4965 71.2657V61.5066C50.4965 61.4037 50.5807 61.3195 50.6836 61.3195C50.7866 61.3195 50.8708 61.4037 50.8708 61.5066V71.5932C52.3211 72.8938 53.5374 74.3347 54.5199 75.8411V59.4481C54.5199 59.3452 54.6041 59.261 54.707 59.261C54.81 59.261 54.8942 59.3452 54.8942 59.4481V76.4493C55.6053 77.6189 56.176 78.8259 56.6065 80.0329C58.2065 84.4306 57.8322 88.8283 55.3059 91.5417ZM58.9269 89.2961C58.9269 89.399 58.8427 89.4833 58.7398 89.4833C58.6369 89.4833 58.5527 89.399 58.5527 89.2961V61.5066C58.5527 61.4037 58.6369 61.3195 58.7398 61.3195C58.8427 61.3195 58.9269 61.4037 58.9269 61.5066V89.2961ZM62.9503 83.6821C62.9503 83.785 62.8661 83.8692 62.7632 83.8692C62.6603 83.8692 62.5761 83.785 62.5761 83.6821V59.4481C62.5761 59.3452 62.6603 59.261 62.7632 59.261C62.8661 59.261 62.9503 59.3452 62.9503 59.4481V83.6821ZM66.9737 82.0914C66.9737 82.1944 66.8895 82.2786 66.7866 82.2786C66.6837 82.2786 66.5995 82.1944 66.5995 82.0914V61.5066C66.5995 61.4037 66.6837 61.3195 66.7866 61.3195C66.8895 61.3195 66.9737 61.4037 66.9737 61.5066V82.0914ZM71.0065 82.2786C71.0065 82.3815 70.9223 82.4657 70.8194 82.4657C70.7164 82.4657 70.6322 82.3815 70.6322 82.2786V59.261C70.6322 59.1581 70.7164 59.0738 70.8194 59.0738C70.9223 59.0738 71.0065 59.1581 71.0065 59.261V82.2786ZM75.0299 82.185C75.0299 82.2879 74.9457 82.3721 74.8428 82.3721C74.7398 82.3721 74.6556 82.2879 74.6556 82.185V61.5066C74.6556 61.4037 74.7398 61.3195 74.8428 61.3195C74.9457 61.3195 75.0299 61.4037 75.0299 61.5066V82.185ZM79.0533 83.6821C79.0533 83.785 78.9691 83.8692 78.8661 83.8692C78.7632 83.8692 78.679 83.785 78.679 83.6821V59.4481C78.679 59.3452 78.7632 59.261 78.8661 59.261C78.9691 59.261 79.0533 59.3452 79.0533 59.4481V83.6821ZM83.0767 89.2026C83.0767 89.3055 82.9925 89.3897 82.8895 89.3897C82.7866 89.3897 82.7024 89.3055 82.7024 89.2026V61.5066C82.7024 61.4037 82.7866 61.3195 82.8895 61.3195C82.9925 61.3195 83.0767 61.4037 83.0767 61.5066V89.2026ZM115.283 101.647C115.283 101.75 115.198 101.834 115.095 101.834C114.993 101.834 114.908 101.75 114.908 101.647V93.0108C114.141 94.4891 113.224 95.6213 112.26 96.2575C111.942 96.4634 111.605 96.6786 111.259 96.8844V101.469C111.259 101.572 111.175 101.656 111.072 101.656C110.969 101.656 110.885 101.572 110.885 101.469V97.0997C109.865 97.6704 108.695 98.1757 107.236 98.4845V100.908C107.236 101.011 107.152 101.095 107.049 101.095C106.946 101.095 106.862 101.011 106.862 100.908V98.5593C105.804 98.7464 104.607 98.8307 103.212 98.7652V99.785C103.212 99.888 103.128 99.9722 103.025 99.9722C102.922 99.9722 102.838 99.888 102.838 99.785V98.7371C101.5 98.6435 99.9937 98.419 98.272 98.0073C91.2545 96.3324 88.8217 94.2646 86.2954 91.5511C83.7691 88.8376 83.3948 84.44 84.9855 80.0423C85.4252 78.8166 86.0147 77.5908 86.7352 76.3932V59.4481C86.7352 59.3452 86.8194 59.261 86.9223 59.261C87.0252 59.261 87.1094 59.3452 87.1094 59.4481V75.7943C88.0919 74.2879 89.3083 72.8563 90.7586 71.5651V61.5066C90.7586 61.4037 90.8428 61.3195 90.9457 61.3195C91.0486 61.3195 91.1328 61.4037 91.1328 61.5066V71.2376C91.7223 70.7417 92.3399 70.2645 93.0042 69.8154C93.575 69.4318 94.1644 69.0762 94.782 68.7394V59.4481C94.782 59.3452 94.8662 59.261 94.9691 59.261C95.072 59.261 95.1562 59.3452 95.1562 59.4481V68.5335C95.1656 68.5335 95.175 68.5242 95.175 68.5242C96.4288 67.8785 97.6451 67.4388 98.8054 67.1581V61.5066C98.8054 61.4037 98.8896 61.3195 98.9925 61.3195C99.0954 61.3195 99.1796 61.4037 99.1796 61.5066V67.0739C100.48 66.7932 101.715 66.7277 102.829 66.7838V59.4481C102.829 59.3452 102.913 59.261 103.016 59.261C103.119 59.261 103.203 59.3452 103.203 59.4481V66.8119C104.644 66.9335 105.888 67.2797 106.852 67.6914V61.5066C106.852 61.4037 106.936 61.3195 107.039 61.3195C107.142 61.3195 107.226 61.4037 107.226 61.5066V67.8598C107.292 67.8973 107.367 67.9253 107.432 67.9627C107.432 67.9627 109.014 68.4961 110.876 69.9557V59.4481C110.876 59.3452 110.96 59.261 111.063 59.261C111.166 59.261 111.25 59.3452 111.25 59.4481V70.2551C112.504 71.2938 113.842 72.7534 114.899 74.7277V61.5066C114.899 61.4037 114.983 61.3195 115.086 61.3195C115.189 61.3195 115.273 61.4037 115.273 61.5066V75.4762C115.432 75.8131 115.582 76.1593 115.713 76.5242C115.9 77.0107 116.069 77.5253 116.218 78.068C117.64 83.2704 116.901 88.5944 115.273 92.2341V101.647H115.283ZM119.306 100.805C119.306 100.908 119.222 100.992 119.119 100.992C119.016 100.992 118.932 100.908 118.932 100.805V59.5417C118.932 59.4388 119.016 59.3545 119.119 59.3545C119.222 59.3545 119.306 59.4388 119.306 59.5417V100.805Z" fill="#2DBECA"/>
<path d="M109.912 105.38C96.7562 103.556 83.872 94.0869 79.5772 90.9524C79.5211 91.1769 79.4369 91.4108 79.3433 91.6541C78.3047 94.2085 74.3843 96.1641 70.8381 96.1641C67.2918 96.1641 63.8205 94.4331 62.4544 91.6541C62.314 91.3547 62.1924 91.0834 62.0988 90.812C61.7433 91.1021 49.0275 101.245 36.7701 104.351C24.335 107.504 17.3736 104.351 12.3584 96.8378L5.11627 108.627L14.866 114.756V125.376H27.1982C27.1982 125.376 34.2625 130.719 46.052 133.226C57.8415 135.734 62.1082 135.921 71.6708 135.921C81.2334 135.921 89.2147 134.714 97.0089 132.861C104.803 131.009 110.651 128.033 114.459 125.348H126.707V114.747L136.541 108.721L129.299 96.8378C129.308 96.8378 123.273 107.233 109.912 105.38ZM87.9609 116.15C87.3995 118.021 86.3702 118.583 82.534 118.209C78.6977 117.834 74.1129 117.731 70.7071 117.731C67.3012 117.731 59.3293 118.115 58.5807 118.209C57.8322 118.302 53.1538 118.957 53.5281 115.027C53.5374 114.915 53.5468 114.812 53.5561 114.7C53.8836 111.397 54.5386 107.561 57.5047 104.463C58.01 103.94 58.5807 103.434 59.2357 102.957C59.8626 102.499 60.5269 102.106 61.21 101.769C65.5796 99.6354 70.7819 99.7851 70.7819 99.7851C70.7819 99.7851 75.9 99.6354 80.4381 101.806C81.1211 102.134 81.7948 102.517 82.4311 102.957C83.0673 103.397 83.6287 103.893 84.1433 104.445C87.0533 107.561 88.0638 112.145 88.0919 114.681C88.1106 115.317 88.0545 115.823 87.9609 116.15Z" fill="white"/>
<path d="M108.2 20.019C114.207 14.8447 122.777 8.97802 134.782 3.56982C134.782 3.56982 119.371 5.15111 104.803 13.4973C101.36 15.4716 98.2533 17.5675 95.5211 19.6073C103.325 16.426 108.2 20.019 108.2 20.019Z" fill="#143A66"/>
<path d="M33.2333 19.9628C33.2333 19.9628 39.1 16.3886 46.4731 19.7663C43.0766 17.1839 39.1655 14.6014 34.9175 12.4774C20.4426 5.23532 14.2204 4.96398 6.79112 3.56982C18.5993 8.81896 27.1701 14.7137 33.2333 19.9628Z" fill="#143A66"/>
<path d="M46.0613 34.7466C46.0613 34.7466 42.7116 28.1501 33.2426 19.9536C27.1794 14.7138 18.6086 8.80968 6.80979 3.56055C6.80979 3.56055 3.84371 16.7442 3.65657 30.5641C3.46944 44.384 5.50921 59.8881 10.8051 75.1116C10.7864 75.1209 10.0472 44.3092 46.0613 34.7466Z" fill="white"/>
<path d="M108.2 20.019C98.5621 28.3278 95.5305 34.8401 95.5305 34.8401C132.003 44.5898 130.796 75.308 130.796 75.308C130.796 75.308 136.27 61.198 137.757 41.4366C139.245 21.6658 134.791 3.56982 134.791 3.56982C122.787 8.97802 114.207 14.8447 108.2 20.019Z" fill="white"/>
<path d="M138.403 3.19494C138.403 3.19494 137.842 -0.426116 133.856 0.041721C129.86 0.509558 114.74 3.00781 100.162 12.1026C85.5842 21.1973 80.3912 28.4394 80.3912 28.4394C80.3912 28.4394 71.1093 27.326 61.2754 28.4394C61.2754 28.4394 50.1409 15.7236 35.6566 8.76221C21.1724 1.80079 11.9934 0.687336 9.02732 0.228856C6.06123 -0.229625 4.19924 0.322423 3.41327 2.59611C3.41327 2.59611 -0.582057 18.5587 0.0729154 35.6348C0.727887 52.7108 3.60041 66.0723 7.1279 75.5413C7.1279 75.5413 5.96766 87.9296 8.47527 96.3788L2.15947 106.681C2.15947 106.681 1.42029 107.607 1.51385 109.001C1.60742 110.395 2.25304 111.041 3.09514 111.696C3.92789 112.341 11.2636 116.711 11.2636 116.711V125.338C11.2636 125.338 11.2636 128.959 14.9782 128.959H26.1595C26.1595 128.959 32.0543 133.6 45.3315 136.753C58.6087 139.906 71.6894 139.906 81.1585 139.074C90.6275 138.241 103.53 136.472 115.591 129.053L126.174 128.959C126.174 128.959 129.888 129.333 130.347 125.431V116.73L138.515 111.789C138.515 111.789 141.116 110.114 139.722 106.961L133.229 96.3788C133.229 96.3788 135.549 89.7916 134.529 75.7752C134.529 75.7752 139.722 61.9459 141.397 42.0816C143.044 22.2172 138.403 3.19494 138.403 3.19494ZM137.757 41.436C136.27 61.2068 130.796 75.3074 130.796 75.3074C132.097 89.7822 129.308 96.8372 129.308 96.8372L136.55 108.72L126.716 114.746V125.338H114.468C110.66 128.033 104.812 130.999 97.0181 132.851C89.224 134.704 81.2427 135.911 71.6801 135.911C62.1175 135.911 57.8508 135.724 46.0613 133.216C34.2718 130.709 27.2075 125.366 27.2075 125.366H14.8753V114.746L5.12556 108.617L12.3677 96.8279C9.40159 88.4723 10.7864 75.1109 10.7864 75.1109C5.49983 59.8875 3.4507 44.3927 3.63784 30.5634C3.82497 16.7341 6.79106 3.55986 6.79106 3.55986C14.2203 4.95401 20.4332 5.23471 34.9174 12.4675C39.1654 14.5915 43.0765 17.1739 46.473 19.7564C54.6508 25.988 59.8906 32.2476 59.8906 32.2476C70.9315 30.7599 81.7947 32.2476 81.7947 32.2476C81.7947 32.2476 86.7164 26.1845 95.5304 19.6067C98.2626 17.5669 101.36 15.4803 104.812 13.4967C119.381 5.14115 134.791 3.56921 134.791 3.56921C134.791 3.56921 139.236 21.6652 137.757 41.436Z" fill="#001D46"/>
<path d="M22.5105 59.3076C22.4075 59.3076 22.3233 59.3918 22.3233 59.4948V100.758C22.3233 100.861 22.4075 100.945 22.5105 100.945C22.6134 100.945 22.6976 100.861 22.6976 100.758V59.4948C22.6976 59.3918 22.6134 59.3076 22.5105 59.3076Z" fill="#274166"/>
<path d="M26.3467 101.554C26.3467 101.657 26.4309 101.741 26.5339 101.741C26.6368 101.741 26.721 101.657 26.721 101.554V93.0768C26.59 92.8335 26.4684 92.5716 26.3467 92.3096V101.554Z" fill="#274166"/>
<path d="M26.721 61.5065C26.721 61.4035 26.6368 61.3193 26.5339 61.3193C26.4309 61.3193 26.3467 61.4035 26.3467 61.5065V75.4012C26.4684 75.1486 26.59 74.9053 26.721 74.6621V61.5065Z" fill="#274166"/>
<path d="M30.7443 59.4484C30.7443 59.3454 30.6601 59.2612 30.5572 59.2612C30.4543 59.2612 30.3701 59.3454 30.3701 59.4484V70.2273C30.4917 70.1244 30.6227 70.0215 30.7443 69.9279V59.4484Z" fill="#274166"/>
<path d="M30.3701 101.366C30.3701 101.469 30.4543 101.553 30.5572 101.553C30.6601 101.553 30.7443 101.469 30.7443 101.366V97.118C30.6133 97.0432 30.4917 96.9777 30.3701 96.9028V101.366Z" fill="#274166"/>
<path d="M34.7771 61.5065C34.7771 61.4035 34.6929 61.3193 34.59 61.3193C34.4871 61.3193 34.4029 61.4035 34.4029 61.5065V67.841C34.5245 67.7848 34.6461 67.7287 34.7771 67.6726V61.5065Z" fill="#274166"/>
<path d="M34.4029 100.899C34.4029 101.002 34.4871 101.086 34.59 101.086C34.6929 101.086 34.7771 101.002 34.7771 100.899V98.5597C34.6461 98.541 34.5245 98.5129 34.4029 98.4849V100.899Z" fill="#274166"/>
<path d="M38.4263 99.7755C38.4263 99.8784 38.5105 99.9626 38.6134 99.9626C38.7163 99.9626 38.8005 99.8784 38.8005 99.7755V98.7275C38.6695 98.7369 38.5479 98.7462 38.4263 98.7462V99.7755Z" fill="#274166"/>
<path d="M38.8006 59.4484C38.8006 59.3454 38.7164 59.2612 38.6135 59.2612C38.5105 59.2612 38.4263 59.3454 38.4263 59.4484V66.8121C38.548 66.8028 38.679 66.7934 38.8006 66.7841V59.4484Z" fill="#274166"/>
<path d="M42.8239 61.5065C42.8239 61.4035 42.7397 61.3193 42.6368 61.3193C42.5339 61.3193 42.4497 61.4035 42.4497 61.5065V67.0831C42.5713 67.1112 42.7023 67.1392 42.8239 67.1673V61.5065Z" fill="#274166"/>
<path d="M46.8474 59.4484C46.8474 59.3454 46.7632 59.2612 46.6603 59.2612C46.5573 59.2612 46.4731 59.3454 46.4731 59.4484V68.5525C46.5948 68.618 46.7258 68.6835 46.8474 68.749V59.4484Z" fill="#274166"/>
<path d="M50.8707 61.5065C50.8707 61.4035 50.7865 61.3193 50.6836 61.3193C50.5807 61.3193 50.4965 61.4035 50.4965 61.5065V71.2656C50.6275 71.3778 50.7491 71.4808 50.8707 71.593V61.5065Z" fill="#274166"/>
<path d="M54.9035 59.4484C54.9035 59.3454 54.8193 59.2612 54.7164 59.2612C54.6135 59.2612 54.5293 59.3454 54.5293 59.4484V75.8507C54.6603 76.0472 54.7819 76.2531 54.9035 76.4496V59.4484Z" fill="#274166"/>
<path d="M58.7397 61.3193C58.6368 61.3193 58.5526 61.4035 58.5526 61.5065V89.296C58.5526 89.3989 58.6368 89.4831 58.7397 89.4831C58.8427 89.4831 58.9269 89.3989 58.9269 89.296V61.5065C58.9269 61.4035 58.8427 61.3193 58.7397 61.3193Z" fill="#274166"/>
<path d="M62.7632 59.2612C62.6603 59.2612 62.5761 59.3454 62.5761 59.4484V83.6823C62.5761 83.7853 62.6603 83.8695 62.7632 83.8695C62.8661 83.8695 62.9503 83.7853 62.9503 83.6823V59.4484C62.9503 59.3454 62.8661 59.2612 62.7632 59.2612Z" fill="#274166"/>
<path d="M66.7865 61.3193C66.6836 61.3193 66.5994 61.4035 66.5994 61.5065V82.0913C66.5994 82.1942 66.6836 82.2784 66.7865 82.2784C66.8895 82.2784 66.9737 82.1942 66.9737 82.0913V61.5065C66.9737 61.4035 66.8895 61.3193 66.7865 61.3193Z" fill="#274166"/>
<path d="M70.8193 59.0732C70.7164 59.0732 70.6322 59.1575 70.6322 59.2604V82.278C70.6322 82.3809 70.7164 82.4651 70.8193 82.4651C70.9223 82.4651 71.0065 82.3809 71.0065 82.278V59.2604C71.0065 59.1575 70.9223 59.0732 70.8193 59.0732Z" fill="#274166"/>
<path d="M74.8427 61.3193C74.7397 61.3193 74.6555 61.4035 74.6555 61.5065V82.1849C74.6555 82.2878 74.7397 82.372 74.8427 82.372C74.9456 82.372 75.0298 82.2878 75.0298 82.1849V61.5065C75.0298 61.4035 74.9456 61.3193 74.8427 61.3193Z" fill="#274166"/>
<path d="M78.8661 59.2612C78.7632 59.2612 78.679 59.3454 78.679 59.4484V83.6823C78.679 83.7853 78.7632 83.8695 78.8661 83.8695C78.9691 83.8695 79.0533 83.7853 79.0533 83.6823V59.4484C79.0533 59.3454 78.9691 59.2612 78.8661 59.2612Z" fill="#274166"/>
<path d="M82.8895 61.3193C82.7865 61.3193 82.7023 61.4035 82.7023 61.5065V89.2024C82.7023 89.3054 82.7865 89.3896 82.8895 89.3896C82.9924 89.3896 83.0766 89.3054 83.0766 89.2024V61.5065C83.0766 61.4035 82.9924 61.3193 82.8895 61.3193Z" fill="#274166"/>
<path d="M87.1001 59.4484C87.1001 59.3454 87.0159 59.2612 86.9129 59.2612C86.81 59.2612 86.7258 59.3454 86.7258 59.4484V76.3841C86.8474 76.1876 86.9691 75.9911 87.1001 75.7946V59.4484Z" fill="#274166"/>
<path d="M91.1329 61.5065C91.1329 61.4035 91.0487 61.3193 90.9457 61.3193C90.8428 61.3193 90.7586 61.4035 90.7586 61.5065V71.565C90.8802 71.4527 91.0019 71.3498 91.1329 71.2375V61.5065Z" fill="#274166"/>
<path d="M95.1562 59.4484C95.1562 59.3454 95.072 59.2612 94.9691 59.2612C94.8661 59.2612 94.7819 59.3454 94.7819 59.4484V68.7396C94.9036 68.6741 95.0346 68.6086 95.1562 68.5431V59.4484Z" fill="#274166"/>
<path d="M99.1797 61.5065C99.1797 61.4035 99.0955 61.3193 98.9925 61.3193C98.8896 61.3193 98.8054 61.4035 98.8054 61.5065V67.1579C98.927 67.1299 99.058 67.1018 99.1797 67.0737V61.5065Z" fill="#274166"/>
<path d="M102.829 99.7759C102.829 99.8788 102.913 99.963 103.016 99.963C103.119 99.963 103.203 99.8788 103.203 99.7759V98.756C103.081 98.7467 102.96 98.7467 102.829 98.7373V99.7759Z" fill="#274166"/>
<path d="M103.203 59.4484C103.203 59.3454 103.119 59.2612 103.016 59.2612C102.913 59.2612 102.829 59.3454 102.829 59.4484V66.7841C102.95 66.7934 103.081 66.8028 103.203 66.8121V59.4484Z" fill="#274166"/>
<path d="M106.852 100.898C106.852 101.001 106.936 101.086 107.039 101.086C107.142 101.086 107.226 101.001 107.226 100.898V98.4751C107.105 98.5032 106.983 98.5219 106.852 98.55V100.898Z" fill="#274166"/>
<path d="M107.226 61.5065C107.226 61.4035 107.142 61.3193 107.039 61.3193C106.936 61.3193 106.852 61.4035 106.852 61.5065V67.6913C106.983 67.7474 107.105 67.8036 107.226 67.8597V61.5065Z" fill="#274166"/>
<path d="M110.885 101.46C110.885 101.563 110.969 101.647 111.072 101.647C111.175 101.647 111.259 101.563 111.259 101.46V96.875C111.138 96.9499 111.016 97.0154 110.885 97.0902V101.46Z" fill="#274166"/>
<path d="M111.259 59.4484C111.259 59.3454 111.175 59.2612 111.072 59.2612C110.969 59.2612 110.885 59.3454 110.885 59.4484V69.956C111.007 70.0496 111.138 70.1525 111.259 70.2554V59.4484Z" fill="#274166"/>
<path d="M115.283 61.5065C115.283 61.4035 115.198 61.3193 115.095 61.3193C114.993 61.3193 114.908 61.4035 114.908 61.5065V74.7369C115.039 74.9802 115.161 75.2235 115.283 75.4854V61.5065Z" fill="#274166"/>
<path d="M114.908 101.647C114.908 101.75 114.993 101.834 115.095 101.834C115.198 101.834 115.283 101.75 115.283 101.647V92.2344C115.161 92.5057 115.039 92.7584 114.908 93.011V101.647Z" fill="#274166"/>
<path d="M119.119 59.3545C119.016 59.3545 118.932 59.4387 118.932 59.5416V100.805C118.932 100.908 119.016 100.992 119.119 100.992C119.222 100.992 119.306 100.908 119.306 100.805V59.5416C119.306 59.4387 119.222 59.3545 119.119 59.3545Z" fill="#274166"/>
<path d="M70.838 96.1638C74.3843 96.1638 78.3047 94.2176 79.3433 91.6539C79.4369 91.4106 79.5211 91.186 79.5772 90.9521C80.1574 88.7533 79.0252 87.1626 76.7889 86.255C74.9924 85.5252 73.3831 85.31 70.838 85.179C70.838 85.179 66.3749 85.0574 64.2603 86.3112C62.3702 87.4433 61.341 88.5942 62.1082 90.8024C62.2018 91.0644 62.3141 91.3451 62.4638 91.6445C63.8111 94.4328 67.2825 96.1638 70.838 96.1638Z" fill="#001D46"/>
<path d="M54.9035 76.4488C54.7819 76.2523 54.6602 76.0465 54.5292 75.85C53.5468 74.3342 52.3304 72.8933 50.8801 71.602C50.7585 71.4898 50.6368 71.3868 50.5058 71.2746C49.907 70.7693 49.2707 70.2827 48.597 69.8243C48.045 69.45 47.4555 69.0944 46.8567 68.767C46.7351 68.7015 46.6041 68.636 46.4824 68.5705C46.4637 68.5611 46.445 68.5517 46.4263 68.5424C45.1912 67.9061 43.9842 67.4664 42.8333 67.1857C42.7117 67.1576 42.5807 67.1295 42.459 67.1015C41.1584 66.8208 39.9233 66.7459 38.8099 66.802C38.6883 66.8114 38.5573 66.8207 38.4356 66.8301C36.9947 66.9424 35.7502 67.2886 34.7865 67.6909C34.6555 67.7471 34.5339 67.8032 34.4122 67.8593C34.328 67.8968 34.2532 67.9342 34.1689 67.981C34.1689 67.981 32.6064 68.505 30.7537 69.9459C30.6321 70.0395 30.5011 70.1424 30.3795 70.2453C29.135 71.2746 27.7876 72.7249 26.7303 74.6804C26.5993 74.9143 26.4777 75.167 26.3561 75.4196C26.1876 75.7752 26.0286 76.1494 25.8789 76.5424C25.6917 77.029 25.5233 77.5436 25.3736 78.0863C23.942 83.326 24.6999 88.6875 26.3561 92.3272C26.4777 92.5892 26.5993 92.8512 26.7303 93.0945C27.4882 94.5448 28.3958 95.6489 29.3502 96.2664C29.6777 96.4816 30.0239 96.6968 30.3888 96.912C30.5105 96.9869 30.6321 97.0524 30.7631 97.1273C31.783 97.6887 32.9526 98.1939 34.4122 98.4933C34.5339 98.5214 34.6555 98.5401 34.7865 98.5682C35.8438 98.7553 37.0415 98.8395 38.4356 98.7647C38.5573 98.7553 38.6789 98.7553 38.8099 98.746C40.1385 98.6524 41.6356 98.4185 43.3386 98.0161C50.3561 96.3413 52.7889 94.2734 55.3152 91.56C57.8415 88.8465 58.2158 84.4489 56.6251 80.0512C56.176 78.8255 55.6053 77.6184 54.9035 76.4488ZM41.4578 93.7869C35.928 93.7869 31.4274 89.3892 31.2684 83.9062C31.9327 84.8512 33.0181 85.4594 34.2532 85.4594C36.2649 85.4594 37.9023 83.822 37.9023 81.8103C37.9023 79.7986 36.2649 78.1611 34.2532 78.1611C33.645 78.1611 33.0836 78.3108 32.5783 78.5728C34.328 75.4851 37.6497 73.3892 41.4578 73.3892C47.0906 73.3892 51.6567 77.9553 51.6567 83.588C51.6567 89.2208 47.0906 93.7869 41.4578 93.7869Z" fill="white"/>
<path d="M41.4579 73.3896C37.6497 73.3896 34.328 75.4762 32.5783 78.5733C33.0836 78.3113 33.645 78.1616 34.2532 78.1616C36.2649 78.1616 37.9023 79.799 37.9023 81.8107C37.9023 83.8224 36.2649 85.4598 34.2532 85.4598C33.0181 85.4598 31.9233 84.8423 31.2684 83.9066C31.4274 89.3897 35.928 93.7874 41.4579 93.7874C46.9877 93.7874 51.6567 89.2213 51.6567 83.5885C51.6567 77.9557 47.0906 73.3896 41.4579 73.3896Z" fill="#001125"/>
<path d="M116.228 78.0681C116.078 77.5254 115.909 77.0108 115.722 76.5242C115.582 76.1593 115.432 75.8131 115.283 75.4763C115.161 75.2237 115.039 74.971 114.908 74.7278C113.851 72.7535 112.513 71.2938 111.259 70.2552C111.138 70.1523 111.007 70.0494 110.885 69.9558C109.014 68.4962 107.442 67.9628 107.442 67.9628C107.376 67.9254 107.311 67.8973 107.236 67.8599C107.114 67.8038 106.992 67.7476 106.861 67.6915C105.898 67.2798 104.653 66.9336 103.212 66.8119C103.091 66.8026 102.96 66.7932 102.838 66.7839C101.725 66.7184 100.49 66.7932 99.189 67.0739C99.0673 67.102 98.9363 67.1301 98.8147 67.1581C97.6545 67.4388 96.4381 67.8786 95.1843 68.5242C95.1749 68.5242 95.1656 68.5336 95.1656 68.5336C95.0439 68.5991 94.9129 68.6646 94.7913 68.7301C94.1738 69.0669 93.5749 69.4318 93.0135 69.8061C92.3492 70.2552 91.7317 70.7231 91.1422 71.2283C91.0112 71.3313 90.8895 71.4435 90.7679 71.5558C89.3176 72.847 88.1012 74.2786 87.1188 75.7851C86.9878 75.9816 86.8661 76.178 86.7445 76.3745C86.024 77.5628 85.4346 78.7886 84.9948 80.0237C83.4041 84.4213 83.7784 88.819 86.3047 91.5325C88.8311 94.2459 91.2638 96.3138 98.2814 97.9886C100.003 98.4003 101.509 98.6249 102.847 98.7184C102.978 98.7278 103.1 98.7372 103.222 98.7372C104.616 98.812 105.823 98.7278 106.871 98.5313C107.002 98.5126 107.123 98.4845 107.245 98.4565C108.705 98.1477 109.884 97.6424 110.894 97.0716C111.025 96.9968 111.147 96.9313 111.269 96.8565C111.615 96.6506 111.952 96.4354 112.27 96.2295C113.233 95.6026 114.15 94.4705 114.918 92.9828C115.049 92.7301 115.17 92.4775 115.292 92.2061C116.911 88.5944 117.65 83.2705 116.228 78.0681ZM100.134 93.7874C94.5012 93.7874 89.9352 89.2213 89.9352 83.5886C89.9352 77.9558 94.5012 73.3897 100.134 73.3897C103.942 73.3897 107.264 75.4763 109.014 78.5734C108.508 78.3114 107.947 78.1617 107.339 78.1617C105.327 78.1617 103.69 79.7991 103.69 81.8108C103.69 83.8225 105.327 85.4599 107.339 85.4599C108.574 85.4599 109.669 84.8424 110.323 83.9067C110.164 89.3898 105.664 93.7874 100.134 93.7874Z" fill="white"/>
<path d="M107.339 85.4598C105.327 85.4598 103.69 83.8224 103.69 81.8107C103.69 79.799 105.327 78.1616 107.339 78.1616C107.947 78.1616 108.508 78.3113 109.014 78.5733C107.264 75.4856 103.942 73.3896 100.134 73.3896C94.5012 73.3896 89.9352 77.9557 89.9352 83.5885C89.9352 89.2213 94.5012 93.7874 100.134 93.7874C105.767 93.7874 110.164 89.3897 110.323 83.9066C109.669 84.8423 108.574 85.4598 107.339 85.4598Z" fill="#001125"/>
<path d="M70.707 109.413C85.3504 109.413 88.1012 114.671 88.1012 114.681C88.0732 112.136 87.0626 107.56 84.1527 104.445V104.473C84.1527 104.473 82.7024 107.645 81.5796 107.551C80.5223 107.467 80.3726 103.378 80.4474 101.815C75.9094 99.6445 70.7913 99.7943 70.7913 99.7943C70.7913 99.7943 65.5889 99.6445 61.2193 101.778C61.2848 103.312 61.1538 107.457 60.0871 107.551C58.9643 107.645 57.514 104.482 57.514 104.473C54.5479 107.56 53.893 111.406 53.5655 114.709C57.8977 108.945 70.707 109.413 70.707 109.413Z" fill="#EB4F69"/>
<path d="M70.707 109.413C70.707 109.413 57.8977 108.945 53.5561 114.7C53.5468 114.812 53.5374 114.915 53.5281 115.027C53.1538 118.957 57.8322 118.302 58.5807 118.208C59.3292 118.115 67.3012 117.731 70.707 117.731C74.1129 117.731 78.6977 117.834 82.534 118.208C86.3702 118.583 87.3995 118.021 87.9609 116.15C88.0545 115.822 88.1106 115.317 88.1012 114.681C88.1012 114.671 85.3503 109.413 70.707 109.413Z" fill="#FFA2B4"/>
<path d="M60.0778 107.542C61.1445 107.448 61.2848 103.312 61.21 101.769C60.5269 102.105 59.8532 102.498 59.2357 102.957C58.5901 103.434 58.0099 103.939 57.5047 104.463C57.5047 104.473 58.955 107.635 60.0778 107.542Z" fill="#DFDFDF"/>
<path d="M81.5796 107.542C82.7024 107.635 84.1527 104.464 84.1527 104.464V104.435C83.6381 103.893 83.0767 103.388 82.4405 102.948C81.8042 102.508 81.1305 102.124 80.4475 101.797C80.382 103.369 80.5223 107.458 81.5796 107.542Z" fill="#DFDFDF"/>
</g>
<defs>
<clipPath id="clip0_211_2197">
<rect width="141.75" height="139.543" fill="white"/>
</clipPath>
</defs>
</svg>
