<svg width="142" height="140" viewBox="0 0 142 140" fill="none" xmlns="http://www.w3.org/2000/svg">
<g clip-path="url(#clip0_211_2075)">
<path d="M95.5305 34.8399C95.5305 34.8399 98.5621 28.3182 108.209 20.0094C108.209 20.0094 103.325 16.4164 95.5305 19.5977C86.7165 26.1849 81.7948 32.2387 81.7948 32.2387C81.7948 32.2387 70.9316 30.751 59.8907 32.2387C59.8907 32.2387 54.6603 25.9884 46.4825 19.7662C39.1093 16.3884 33.2427 19.9627 33.2427 19.9627C42.721 28.1592 46.0614 34.7557 46.0614 34.7557C10.0473 44.3183 10.7958 75.13 10.7958 75.13C10.7958 75.13 9.40168 88.4915 12.3771 96.847C17.3923 104.36 24.3538 107.523 36.7889 104.36C49.0462 101.254 61.762 91.102 62.1176 90.8213C61.3503 88.6037 62.3796 87.4529 64.2696 86.33C66.3843 85.0669 70.8474 85.1979 70.8474 85.1979C73.3925 85.3195 75.0018 85.5441 76.7983 86.2739C79.0346 87.1815 80.1761 88.7721 79.5866 90.971C83.8814 94.1055 96.7656 103.565 109.921 105.399C123.283 107.252 129.318 96.8564 129.318 96.8564C129.318 96.8564 132.106 89.8014 130.805 75.3265C130.796 75.3078 132.003 44.5896 95.5305 34.8399ZM33.9725 97.2494C29.6871 97.2494 26.2064 95.9488 26.2064 94.3488C26.2064 92.7488 29.6871 91.4482 33.9725 91.4482C38.2579 91.4482 41.7386 92.7488 41.7386 94.3488C41.7386 95.9488 38.2579 97.2494 33.9725 97.2494ZM56.1105 86.1803C55.624 86.5172 55.0626 86.6762 54.5105 86.6762C53.5936 86.6762 52.6953 86.2365 52.1433 85.4224C46.9129 77.7218 37.8181 75.6353 34.6087 77.0669C32.4099 78.0493 32.1011 79.9768 32.0731 80.192C32.0731 80.192 31.7175 81.9885 30.4076 82.4563C29.0976 82.9242 27.7877 82.5499 27.1327 81.8014C26.4777 81.0528 26.4029 80.2669 26.3935 79.6306C26.5713 77.6376 28.0122 73.7546 32.2883 71.8458C38.6415 69.0107 50.4965 72.847 56.8591 82.2037C57.7573 83.523 57.4205 85.3008 56.1105 86.1803ZM62.024 73.6329C61.3316 74.606 60.7515 74.2879 59.6848 72.9405C58.6182 71.5932 55.4556 69.675 54.6696 68.6364C53.8836 67.5978 54.4638 66.5592 56.1948 66.1569C57.8322 65.7826 60.2837 67.2236 60.2837 67.2236C61.4907 68.047 62.0521 68.6458 62.4076 69.9183C62.8287 71.3592 62.7164 72.6598 62.024 73.6329ZM81.8135 72.9312C80.7469 74.2786 80.1761 74.5967 79.4743 73.6236C78.7726 72.6505 78.6603 71.3499 79.072 69.9183C79.4369 68.6458 79.9983 68.047 81.196 67.2236C81.196 67.2236 83.6474 65.7826 85.2849 66.1569C87.0159 66.5499 87.596 67.5885 86.81 68.6364C86.0428 69.675 82.8802 71.5838 81.8135 72.9312ZM89.4393 85.4224C88.8872 86.2365 87.989 86.6762 87.072 86.6762C86.52 86.6762 85.9586 86.5172 85.472 86.1803C84.1714 85.2914 83.8252 83.523 84.7141 82.2131C91.0767 72.847 102.941 69.0201 109.285 71.8552C113.561 73.7639 115.002 77.647 115.18 79.64C115.17 80.2762 115.095 81.0622 114.44 81.8107C113.786 82.5593 112.476 82.9335 111.166 82.4657C109.856 81.9979 109.5 80.2014 109.5 80.2014C109.472 79.9862 109.163 78.0587 106.964 77.0762C103.764 75.6446 94.679 77.7312 89.4393 85.4224ZM107.704 97.2494C103.418 97.2494 99.9375 95.9488 99.9375 94.3488C99.9375 92.7488 103.418 91.4482 107.704 91.4482C111.989 91.4482 115.47 92.7488 115.47 94.3488C115.47 95.9488 111.989 97.2494 107.704 97.2494Z" fill="#2DBECA"/>
<path d="M109.912 105.38C96.7562 103.556 83.872 94.0869 79.5772 90.9524C79.5211 91.1769 79.4369 91.4108 79.3433 91.6541C78.3047 94.2085 74.3843 96.1641 70.8381 96.1641C67.2918 96.1641 63.8205 94.4331 62.4544 91.6541C62.314 91.3547 62.1924 91.0834 62.0988 90.812C61.7433 91.1021 49.0275 101.245 36.7701 104.351C24.335 107.504 17.3736 104.351 12.3584 96.8378L5.11627 108.627L14.866 114.756V125.376H27.1982C27.1982 125.376 34.2625 130.719 46.052 133.226C57.8415 135.734 62.1082 135.921 71.6708 135.921C81.2334 135.921 89.2147 134.714 97.0089 132.861C104.803 131.009 110.651 128.033 114.459 125.348H126.707V114.747L136.541 108.721L129.299 96.8378C129.308 96.8378 123.273 107.233 109.912 105.38ZM90.6931 103.743C90.5901 106.681 89.748 110.358 88.5878 112.566C87.4369 114.775 84.1808 121.296 70.8474 121.296C57.514 121.296 54.6696 115.083 53.0883 112.566C51.5164 110.049 50.7772 104.482 50.983 103.64C51.1889 102.798 51.1889 102.489 52.031 101.75C52.8731 101.011 55.2497 100.936 55.2497 100.936H70.8287L81.6919 100.917L85.7621 100.908H86.155C86.1738 100.908 90.796 100.805 90.6931 103.743Z" fill="white"/>
<path d="M108.2 20.019C114.207 14.8447 122.777 8.97802 134.782 3.56982C134.782 3.56982 119.371 5.15111 104.803 13.4973C101.36 15.4716 98.2533 17.5675 95.5211 19.6073C103.325 16.426 108.2 20.019 108.2 20.019Z" fill="#143A66"/>
<path d="M33.2333 19.9628C33.2333 19.9628 39.1 16.3886 46.4731 19.7663C43.0766 17.1839 39.1655 14.6014 34.9175 12.4774C20.4426 5.23532 14.2204 4.96398 6.79112 3.56982C18.5993 8.81896 27.1701 14.7137 33.2333 19.9628Z" fill="#143A66"/>
<path d="M46.0613 34.7466C46.0613 34.7466 42.7116 28.1501 33.2426 19.9536C27.1794 14.7138 18.6086 8.80968 6.80979 3.56055C6.80979 3.56055 3.84371 16.7442 3.65657 30.5641C3.46944 44.384 5.50921 59.8881 10.8051 75.1116C10.7864 75.1209 10.0472 44.3092 46.0613 34.7466Z" fill="white"/>
<path d="M108.2 20.019C98.5621 28.3278 95.5305 34.8401 95.5305 34.8401C132.003 44.5898 130.796 75.308 130.796 75.308C130.796 75.308 136.27 61.198 137.757 41.4366C139.245 21.6658 134.791 3.56982 134.791 3.56982C122.787 8.97802 114.207 14.8447 108.2 20.019Z" fill="white"/>
<path d="M138.403 3.19494C138.403 3.19494 137.842 -0.426116 133.856 0.041721C129.86 0.509558 114.74 3.00781 100.162 12.1026C85.5842 21.1973 80.3912 28.4394 80.3912 28.4394C80.3912 28.4394 71.1093 27.326 61.2754 28.4394C61.2754 28.4394 50.1409 15.7236 35.6566 8.76221C21.1724 1.80079 11.9934 0.687336 9.02732 0.228856C6.06123 -0.229625 4.19924 0.322423 3.41327 2.59611C3.41327 2.59611 -0.582057 18.5587 0.0729154 35.6348C0.727887 52.7108 3.60041 66.0723 7.1279 75.5413C7.1279 75.5413 5.96766 87.9296 8.47527 96.3788L2.15947 106.681C2.15947 106.681 1.42029 107.607 1.51385 109.001C1.60742 110.395 2.25304 111.041 3.09514 111.696C3.92789 112.341 11.2636 116.711 11.2636 116.711V125.338C11.2636 125.338 11.2636 128.959 14.9782 128.959H26.1595C26.1595 128.959 32.0543 133.6 45.3315 136.753C58.6087 139.906 71.6894 139.906 81.1585 139.074C90.6275 138.241 103.53 136.472 115.591 129.053L126.174 128.959C126.174 128.959 129.888 129.333 130.347 125.431V116.73L138.515 111.789C138.515 111.789 141.116 110.114 139.722 106.961L133.229 96.3788C133.229 96.3788 135.549 89.7916 134.529 75.7752C134.529 75.7752 139.722 61.9459 141.397 42.0816C143.044 22.2172 138.403 3.19494 138.403 3.19494ZM137.757 41.436C136.27 61.2068 130.796 75.3074 130.796 75.3074C132.097 89.7822 129.308 96.8372 129.308 96.8372L136.55 108.72L126.716 114.746V125.338H114.468C110.66 128.033 104.812 130.999 97.0181 132.851C89.224 134.704 81.2427 135.911 71.6801 135.911C62.1175 135.911 57.8508 135.724 46.0613 133.216C34.2718 130.709 27.2075 125.366 27.2075 125.366H14.8753V114.746L5.12556 108.617L12.3677 96.8279C9.40159 88.4723 10.7864 75.1109 10.7864 75.1109C5.49983 59.8875 3.4507 44.3927 3.63784 30.5634C3.82497 16.7341 6.79106 3.55986 6.79106 3.55986C14.2203 4.95401 20.4332 5.23471 34.9174 12.4675C39.1654 14.5915 43.0765 17.1739 46.473 19.7564C54.6508 25.988 59.8906 32.2476 59.8906 32.2476C70.9315 30.7599 81.7947 32.2476 81.7947 32.2476C81.7947 32.2476 86.7164 26.1845 95.5304 19.6067C98.2626 17.5669 101.36 15.4803 104.812 13.4967C119.381 5.14115 134.791 3.56921 134.791 3.56921C134.791 3.56921 139.236 21.6652 137.757 41.436Z" fill="#001D46"/>
<path d="M70.838 96.1638C74.3843 96.1638 78.3047 94.2176 79.3433 91.6539C79.4369 91.4106 79.5211 91.186 79.5772 90.9521C80.1574 88.7533 79.0252 87.1626 76.7889 86.255C74.9924 85.5252 73.3831 85.31 70.838 85.179C70.838 85.179 66.3749 85.0574 64.2603 86.3112C62.3702 87.4433 61.341 88.5942 62.1082 90.8024C62.2018 91.0644 62.3141 91.3451 62.4638 91.6445C63.8111 94.4328 67.2825 96.1638 70.838 96.1638Z" fill="#001D46"/>
<path d="M60.293 67.2235C60.293 67.2235 57.8415 65.7825 56.2041 66.1568C54.4731 66.5498 53.893 67.5884 54.6789 68.6363C55.4649 69.6749 58.6275 71.5931 59.6942 72.9404C60.7608 74.2878 61.3316 74.6059 62.0333 73.6328C62.7257 72.6597 62.8474 71.3591 62.4357 69.9276C62.0614 68.655 61.5 68.0468 60.293 67.2235Z" fill="#0295AF"/>
<path d="M86.8287 68.6363C87.6147 67.5977 87.0346 66.5591 85.3036 66.1568C83.6661 65.7825 81.2147 67.2235 81.2147 67.2235C80.0076 68.0468 79.4462 68.6457 79.0907 69.9182C78.679 71.3591 78.8006 72.6504 79.493 73.6235C80.1854 74.5966 80.7655 74.2784 81.8322 72.9311C82.8802 71.5837 86.0427 69.6749 86.8287 68.6363Z" fill="#0295AF"/>
<path d="M86.1737 100.908H85.7808V100.926C85.7808 100.926 84.1527 104.688 82.7866 104.37C81.8229 104.145 81.7012 102.096 81.7012 100.908L70.8381 100.926H59.9468C59.9562 102.115 59.8252 104.145 58.8614 104.37C57.4953 104.688 55.8673 100.926 55.8673 100.926H55.2591C55.2591 100.926 52.8731 101.011 52.0403 101.74C51.1982 102.48 51.1982 102.788 50.9924 103.63C50.7865 104.473 51.5164 110.04 53.0977 112.557C58.562 106.99 70.9503 107.514 70.9503 107.514C84.7047 107.514 88.5971 112.557 88.5971 112.557C89.748 110.349 90.5901 106.671 90.7024 103.733C90.796 100.805 86.1737 100.908 86.1737 100.908Z" fill="#EB4F69"/>
<path d="M70.941 107.523C70.941 107.523 58.5433 106.999 53.0883 112.566C54.6602 115.083 57.514 121.296 70.8474 121.296C84.1808 121.296 87.4369 114.774 88.5878 112.566C88.5878 112.566 84.7047 107.523 70.941 107.523Z" fill="#FFA2B4"/>
<path d="M58.8708 104.379C59.8252 104.155 59.9561 102.124 59.9561 100.936H55.886C55.8766 100.927 57.5047 104.688 58.8708 104.379Z" fill="#DFDFDF"/>
<path d="M82.796 104.379C84.162 104.697 85.7901 100.936 85.7901 100.936V100.917L81.7199 100.926C81.7012 102.105 81.8322 104.154 82.796 104.379Z" fill="#DFDFDF"/>
<path d="M32.2976 71.855C28.0216 73.7638 26.5806 77.6468 26.4029 79.6398C26.4122 80.2761 26.4871 81.062 27.142 81.8106C27.797 82.5591 29.107 82.9334 30.4169 82.4655C31.7268 81.9977 32.0824 80.2012 32.0824 80.2012C32.1105 79.986 32.4193 78.0585 34.6181 77.0761C37.8274 75.6445 46.9128 77.731 52.1526 85.4316C52.7047 86.2457 53.6029 86.6854 54.5199 86.6854C55.0719 86.6854 55.6333 86.5264 56.1199 86.1895C57.4205 85.3006 57.7667 83.5322 56.8778 82.2223C50.5058 72.8562 38.6508 69.0293 32.2976 71.855Z" fill="#001125"/>
<path d="M106.974 77.076C109.173 78.0584 109.481 79.9859 109.509 80.2011C109.509 80.2011 109.865 81.9976 111.175 82.4655C112.485 82.9333 113.795 82.559 114.45 81.8105C115.105 81.0619 115.18 80.276 115.189 79.6397C115.011 77.6467 113.57 73.7637 109.294 71.8549C102.941 69.0198 91.086 72.8561 84.7235 82.2128C83.8346 83.5134 84.1808 85.2912 85.4814 86.1801C85.9679 86.5169 86.5293 86.676 87.0814 86.676C87.9983 86.676 88.8966 86.2362 89.4486 85.4222C94.679 77.7309 103.764 75.6444 106.974 77.076Z" fill="#001125"/>
<path d="M33.9725 97.2494C38.2616 97.2494 41.7386 95.9508 41.7386 94.3488C41.7386 92.7469 38.2616 91.4482 33.9725 91.4482C29.6834 91.4482 26.2064 92.7469 26.2064 94.3488C26.2064 95.9508 29.6834 97.2494 33.9725 97.2494Z" fill="#EB4F69"/>
<path d="M107.704 97.2494C111.993 97.2494 115.47 95.9508 115.47 94.3488C115.47 92.7469 111.993 91.4482 107.704 91.4482C103.415 91.4482 99.9375 92.7469 99.9375 94.3488C99.9375 95.9508 103.415 97.2494 107.704 97.2494Z" fill="#EB4F69"/>
</g>
<defs>
<clipPath id="clip0_211_2075">
<rect width="141.75" height="139.543" fill="white"/>
</clipPath>
</defs>
</svg>
