<svg width="142" height="140" viewBox="0 0 142 140" fill="none" xmlns="http://www.w3.org/2000/svg">
<g clip-path="url(#clip0_211_2288)">
<path d="M95.5305 34.8399C95.5305 34.8399 98.5621 28.3182 108.209 20.0094C108.209 20.0094 103.325 16.4164 95.5305 19.5977C86.7165 26.1849 81.7948 32.2387 81.7948 32.2387C81.7948 32.2387 70.9316 30.751 59.8907 32.2387C59.8907 32.2387 54.6603 25.9884 46.4825 19.7662C39.1093 16.3884 33.2427 19.9627 33.2427 19.9627C42.721 28.1592 46.0614 34.7557 46.0614 34.7557C10.0473 44.3183 10.7958 75.13 10.7958 75.13C10.7958 75.13 9.40168 88.4914 12.3771 96.847C16.4192 102.91 21.7245 106.129 30.1456 105.502V86.3487C30.0052 86.2365 29.8742 86.1242 29.7432 86.0213C28.0029 84.5242 27.0672 83.0926 26.7304 82.5125V98.3722C26.7304 98.4751 26.6462 98.5593 26.5432 98.5593C26.4403 98.5593 26.3561 98.4751 26.3561 98.3722V81.268C26.3374 81.0715 26.3374 80.8657 26.3561 80.6411V61.5066C26.3561 61.4037 26.4403 61.3195 26.5432 61.3195C26.6462 61.3195 26.7304 61.4037 26.7304 61.5066V79.5745C26.9456 79.2563 27.2543 78.9569 27.7128 78.723C29.9023 77.5815 31.259 79.8645 31.259 79.8645C31.3713 80.0797 34.1128 85.0388 42.5994 85.2259C49.2053 85.3756 53.8088 80.7253 53.8556 80.6786C54.8661 79.64 56.5222 79.6213 57.5608 80.6318C58.5994 81.6423 58.6182 83.2984 57.6076 84.337C57.4392 84.5148 54.6603 87.3125 50.169 89.0622V98.7371C57.0369 94.9008 62.1269 90.8026 62.1269 90.8026H62.3421C61.1913 88.2201 62.2299 86.9757 64.2696 85.7499C66.3843 84.4868 70.8474 84.6178 70.8474 84.6178C73.3925 84.7394 75.0018 84.964 76.7983 85.6938C79.1936 86.6575 80.3258 88.4166 79.4463 90.8493C81.5515 92.3839 85.9586 95.64 91.5258 98.709V89.0809C87.0252 87.3312 84.2369 84.5242 84.0685 84.3464C83.058 83.3078 83.0767 81.6517 84.1153 80.6411C85.1539 79.6306 86.81 79.6493 87.8206 80.6879C87.8673 80.7347 92.4709 85.385 99.0767 85.2353C107.573 85.0388 110.305 80.0797 110.417 79.8739C110.417 79.8739 111.774 77.5908 113.963 78.7324C114.394 78.9569 114.702 79.2376 114.908 79.537V61.5066C114.908 61.4037 114.993 61.3195 115.095 61.3195C115.198 61.3195 115.283 61.4037 115.283 61.5066V80.4259C115.357 80.8189 115.339 81.2025 115.283 81.5207V98.3722C115.283 98.4751 115.198 98.5593 115.095 98.5593C114.993 98.5593 114.908 98.4751 114.908 98.3722V82.5593C114.543 83.1768 113.617 84.571 111.924 86.0119C111.802 86.1148 111.671 86.2271 111.54 86.33V105.549C123.769 106.391 129.308 96.847 129.308 96.847C129.308 96.847 132.097 89.792 130.796 75.3172C130.796 75.3078 132.003 44.5896 95.5305 34.8399ZM22.6976 97.3897C22.6976 97.4926 22.6134 97.5768 22.5105 97.5768C22.4076 97.5768 22.3233 97.4926 22.3233 97.3897V59.4949C22.3233 59.392 22.4076 59.3078 22.5105 59.3078C22.6134 59.3078 22.6976 59.392 22.6976 59.4949V97.3897ZM30.7444 77.3195C30.7444 77.4224 30.6602 77.5066 30.5573 77.5066C30.4544 77.5066 30.3701 77.4224 30.3701 77.3195V59.4481C30.3701 59.3452 30.4544 59.261 30.5573 59.261C30.6602 59.261 30.7444 59.3452 30.7444 59.4481V77.3195ZM34.7772 81.0622C34.7772 81.1651 34.693 81.2493 34.59 81.2493C34.4871 81.2493 34.4029 81.1651 34.4029 81.0622V61.5066C34.4029 61.4037 34.4871 61.3195 34.59 61.3195C34.693 61.3195 34.7772 61.4037 34.7772 61.5066V81.0622ZM38.8006 82.6528C38.8006 82.7558 38.7164 82.84 38.6134 82.84C38.5105 82.84 38.4263 82.7558 38.4263 82.6528V59.4481C38.4263 59.3452 38.5105 59.261 38.6134 59.261C38.7164 59.261 38.8006 59.3452 38.8006 59.4481V82.6528ZM42.824 83.2142C42.824 83.3172 42.7398 83.4014 42.6368 83.4014C42.5339 83.4014 42.4497 83.3172 42.4497 83.2142V61.5066C42.4497 61.4037 42.5339 61.3195 42.6368 61.3195C42.7398 61.3195 42.824 61.4037 42.824 61.5066V83.2142ZM46.8474 82.7464C46.8474 82.8493 46.7632 82.9335 46.6602 82.9335C46.5573 82.9335 46.4731 82.8493 46.4731 82.7464V59.4481C46.4731 59.3452 46.5573 59.261 46.6602 59.261C46.7632 59.261 46.8474 59.3452 46.8474 59.4481V82.7464ZM50.8708 80.7815C50.8708 80.8844 50.7866 80.9686 50.6836 80.9686C50.5807 80.9686 50.4965 80.8844 50.4965 80.7815V61.5066C50.4965 61.4037 50.5807 61.3195 50.6836 61.3195C50.7866 61.3195 50.8708 61.4037 50.8708 61.5066V80.7815ZM54.9035 77.9745C54.9035 78.0774 54.8193 78.1616 54.7164 78.1616C54.6135 78.1616 54.5293 78.0774 54.5293 77.9745V59.4481C54.5293 59.3452 54.6135 59.261 54.7164 59.261C54.8193 59.261 54.9035 59.3452 54.9035 59.4481V77.9745ZM58.9269 86.2084C58.9269 86.3113 58.8427 86.3955 58.7398 86.3955C58.6369 86.3955 58.5527 86.3113 58.5527 86.2084V61.5066C58.5527 61.4037 58.6369 61.3195 58.7398 61.3195C58.8427 61.3195 58.9269 61.4037 58.9269 61.5066V86.2084ZM62.9503 84.1499C62.9503 84.2528 62.8661 84.337 62.7632 84.337C62.6603 84.337 62.5761 84.2528 62.5761 84.1499V59.4481C62.5761 59.3452 62.6603 59.261 62.7632 59.261C62.8661 59.261 62.9503 59.3452 62.9503 59.4481V84.1499ZM66.9737 82.4657C66.9737 82.5686 66.8895 82.6528 66.7866 82.6528C66.6837 82.6528 66.5995 82.5686 66.5995 82.4657V61.5066C66.5995 61.4037 66.6837 61.3195 66.7866 61.3195C66.8895 61.3195 66.9737 61.4037 66.9737 61.5066V82.4657ZM71.0065 82.2786C71.0065 82.3815 70.9223 82.4657 70.8194 82.4657C70.7164 82.4657 70.6322 82.3815 70.6322 82.2786V59.261C70.6322 59.158 70.7164 59.0738 70.8194 59.0738C70.9223 59.0738 71.0065 59.158 71.0065 59.261V82.2786ZM75.0299 82.4657C75.0299 82.5686 74.9457 82.6528 74.8428 82.6528C74.7398 82.6528 74.6556 82.5686 74.6556 82.4657V61.5066C74.6556 61.4037 74.7398 61.3195 74.8428 61.3195C74.9457 61.3195 75.0299 61.4037 75.0299 61.5066V82.4657ZM79.0533 84.1499C79.0533 84.2528 78.9691 84.337 78.8661 84.337C78.7632 84.337 78.679 84.2528 78.679 84.1499V59.4481C78.679 59.3452 78.7632 59.261 78.8661 59.261C78.9691 59.261 79.0533 59.3452 79.0533 59.4481V84.1499ZM83.0767 86.2084C83.0767 86.3113 82.9925 86.3955 82.8895 86.3955C82.7866 86.3955 82.7024 86.3113 82.7024 86.2084V61.5066C82.7024 61.4037 82.7866 61.3195 82.8895 61.3195C82.9925 61.3195 83.0767 61.4037 83.0767 61.5066V86.2084ZM87.1001 77.9745C87.1001 78.0774 87.0159 78.1616 86.9129 78.1616C86.81 78.1616 86.7258 78.0774 86.7258 77.9745V59.4481C86.7258 59.3452 86.81 59.261 86.9129 59.261C87.0159 59.261 87.1001 59.3452 87.1001 59.4481V77.9745ZM91.1328 80.7815C91.1328 80.8844 91.0486 80.9686 90.9457 80.9686C90.8428 80.9686 90.7586 80.8844 90.7586 80.7815V61.5066C90.7586 61.4037 90.8428 61.3195 90.9457 61.3195C91.0486 61.3195 91.1328 61.4037 91.1328 61.5066V80.7815ZM95.1562 82.7464C95.1562 82.8493 95.072 82.9335 94.9691 82.9335C94.8662 82.9335 94.782 82.8493 94.782 82.7464V59.4481C94.782 59.3452 94.8662 59.261 94.9691 59.261C95.072 59.261 95.1562 59.3452 95.1562 59.4481V82.7464ZM99.1796 83.2142C99.1796 83.3172 99.0954 83.4014 98.9925 83.4014C98.8896 83.4014 98.8054 83.3172 98.8054 83.2142V61.5066C98.8054 61.4037 98.8896 61.3195 98.9925 61.3195C99.0954 61.3195 99.1796 61.4037 99.1796 61.5066V83.2142ZM103.203 82.6528C103.203 82.7558 103.119 82.84 103.016 82.84C102.913 82.84 102.829 82.7558 102.829 82.6528V59.4481C102.829 59.3452 102.913 59.261 103.016 59.261C103.119 59.261 103.203 59.3452 103.203 59.4481V82.6528ZM107.226 81.0622C107.226 81.1651 107.142 81.2493 107.039 81.2493C106.936 81.2493 106.852 81.1651 106.852 81.0622V61.5066C106.852 61.4037 106.936 61.3195 107.039 61.3195C107.142 61.3195 107.226 61.4037 107.226 61.5066V81.0622ZM111.259 77.3195C111.259 77.4224 111.175 77.5066 111.072 77.5066C110.969 77.5066 110.885 77.4224 110.885 77.3195V59.4481C110.885 59.3452 110.969 59.261 111.072 59.261C111.175 59.261 111.259 59.3452 111.259 59.4481V77.3195ZM119.306 97.4365C119.306 97.5394 119.222 97.6236 119.119 97.6236C119.016 97.6236 118.932 97.5394 118.932 97.4365V59.5417C118.932 59.4388 119.016 59.3545 119.119 59.3545C119.222 59.3545 119.306 59.4388 119.306 59.5417V97.4365Z" fill="#2DBECA"/>
<path d="M111.54 105.549V127.051C107.872 129.193 102.988 131.308 96.9153 132.758C95.1282 133.179 93.3317 133.572 91.5165 133.928V98.7091C85.9492 95.6401 81.5422 92.3839 79.4369 90.8494C79.4088 90.9337 79.3808 91.0085 79.3433 91.0927C78.3047 93.6471 74.3843 95.6027 70.8381 95.6027C67.2918 95.6027 63.8205 93.8717 62.4544 91.0927C62.4076 90.9991 62.3608 90.9056 62.3234 90.812H62.1082C62.1082 90.812 57.0181 94.9103 50.1503 98.7465V133.993C48.8591 133.741 47.4649 133.46 45.9585 133.142C38.7257 131.607 33.2614 128.997 30.1269 127.21V105.511C21.7058 106.138 16.4005 102.92 12.3584 96.8565L5.11627 108.646L14.866 114.775V125.395H27.1982C27.1982 125.395 34.2625 130.737 46.052 133.245C57.8415 135.752 62.1082 135.94 71.6708 135.94C81.2334 135.94 89.2147 134.733 97.0089 132.88C104.803 131.027 110.651 128.052 114.459 125.366H126.707V114.747L136.541 108.721L129.299 96.8378C129.308 96.8378 123.769 106.391 111.54 105.549ZM89.2241 114.924C89.1211 115.982 88.5691 117.086 86.7445 118.021C84.6205 119.116 81.9726 120.641 70.5573 120.641C57.645 120.641 54.2766 117.647 53.8088 117.273C53.4719 117.002 52.686 116.534 52.4988 115.111C52.424 114.578 52.4427 113.904 52.5924 113.062C53.1538 109.975 54.183 106.793 59.3293 103.612C64.4755 100.431 70.7913 100.496 70.7913 100.496C77.3878 100.655 83.0954 103.144 85.7808 106.185C88.4662 109.226 88.9059 111.378 89.0931 112.875C89.1586 113.483 89.2989 114.195 89.2241 114.924Z" fill="white"/>
<path d="M108.2 20.019C114.207 14.8447 122.777 8.97802 134.782 3.56982C134.782 3.56982 119.371 5.15111 104.803 13.4973C101.36 15.4716 98.2533 17.5675 95.5211 19.6073C103.325 16.426 108.2 20.019 108.2 20.019Z" fill="#143A66"/>
<path d="M33.2333 19.9628C33.2333 19.9628 39.1 16.3886 46.4731 19.7663C43.0766 17.1839 39.1655 14.6014 34.9175 12.4774C20.4426 5.23532 14.2204 4.96398 6.79112 3.56982C18.5993 8.81896 27.1701 14.7137 33.2333 19.9628Z" fill="#143A66"/>
<path d="M46.0614 34.7466C46.0614 34.7466 42.7117 28.1501 33.2427 19.9536C27.1795 14.7138 18.6087 8.80968 6.80985 3.56055C6.80985 3.56055 3.84377 16.7442 3.65663 30.5641C3.4695 44.384 5.50927 59.8881 10.8052 75.1116C10.7865 75.1209 10.0473 44.3092 46.0614 34.7466Z" fill="white"/>
<path d="M108.2 20.019C98.5621 28.3278 95.5305 34.8401 95.5305 34.8401C132.003 44.5898 130.796 75.308 130.796 75.308C130.796 75.308 136.27 61.198 137.757 41.4366C139.245 21.6658 134.791 3.56982 134.791 3.56982C122.787 8.97802 114.207 14.8447 108.2 20.019Z" fill="white"/>
<path d="M138.403 3.19494C138.403 3.19494 137.842 -0.426116 133.856 0.041721C129.86 0.509558 114.74 3.00781 100.162 12.1026C85.5842 21.1973 80.3912 28.4394 80.3912 28.4394C80.3912 28.4394 71.1093 27.326 61.2754 28.4394C61.2754 28.4394 50.1409 15.7236 35.6566 8.76221C21.1724 1.80079 11.9934 0.687336 9.02732 0.228856C6.06123 -0.229625 4.19924 0.322423 3.41327 2.59611C3.41327 2.59611 -0.582057 18.5587 0.0729154 35.6348C0.727887 52.7108 3.60041 66.0723 7.1279 75.5413C7.1279 75.5413 5.96766 87.9296 8.47527 96.3788L2.15947 106.681C2.15947 106.681 1.42029 107.607 1.51385 109.001C1.60742 110.395 2.25304 111.041 3.09514 111.696C3.92789 112.341 11.2636 116.711 11.2636 116.711V125.338C11.2636 125.338 11.2636 128.959 14.9782 128.959H26.1595C26.1595 128.959 32.0543 133.6 45.3315 136.753C58.6087 139.906 71.6894 139.906 81.1585 139.074C90.6275 138.241 103.53 136.472 115.591 129.053L126.174 128.959C126.174 128.959 129.888 129.333 130.347 125.431V116.73L138.515 111.789C138.515 111.789 141.116 110.114 139.722 106.961L133.229 96.3788C133.229 96.3788 135.549 89.7916 134.529 75.7752C134.529 75.7752 139.722 61.9459 141.397 42.0816C143.044 22.2172 138.403 3.19494 138.403 3.19494ZM137.757 41.436C136.27 61.2068 130.796 75.3074 130.796 75.3074C132.097 89.7822 129.308 96.8372 129.308 96.8372L136.55 108.72L126.716 114.746V125.338H114.468C110.66 128.033 104.812 130.999 97.0181 132.851C89.224 134.704 81.2427 135.911 71.6801 135.911C62.1175 135.911 57.8508 135.724 46.0613 133.216C34.2718 130.709 27.2075 125.366 27.2075 125.366H14.8753V114.746L5.12556 108.617L12.3677 96.8279C9.40159 88.4723 10.7864 75.1109 10.7864 75.1109C5.49983 59.8875 3.4507 44.3927 3.63784 30.5634C3.82497 16.7341 6.79106 3.55986 6.79106 3.55986C14.2203 4.95401 20.4332 5.23471 34.9174 12.4675C39.1654 14.5915 43.0765 17.1739 46.473 19.7564C54.6508 25.988 59.8906 32.2476 59.8906 32.2476C70.9315 30.7599 81.7947 32.2476 81.7947 32.2476C81.7947 32.2476 86.7164 26.1845 95.5304 19.6067C98.2626 17.5669 101.36 15.4803 104.812 13.4967C119.381 5.14115 134.791 3.56921 134.791 3.56921C134.791 3.56921 139.236 21.6652 137.757 41.436Z" fill="#001D46"/>
<path d="M70.838 95.6028C74.3842 95.6028 78.3047 93.6566 79.3433 91.0928C79.3807 91.0086 79.4088 90.9338 79.4369 90.8496C80.3164 88.4168 79.1843 86.6577 76.7889 85.694C74.9924 84.9642 73.3831 84.749 70.838 84.618C70.838 84.618 66.3749 84.4963 64.2602 85.7501C62.2205 86.9665 61.1819 88.2203 62.3328 90.8028C62.3702 90.8963 62.417 90.9899 62.4638 91.0835C63.8111 93.8718 67.2825 95.6028 70.838 95.6028Z" fill="#001D46"/>
<path d="M22.5105 59.3076C22.4075 59.3076 22.3233 59.3918 22.3233 59.4948V97.3896C22.3233 97.4925 22.4075 97.5767 22.5105 97.5767C22.6134 97.5767 22.6976 97.4925 22.6976 97.3896V59.4948C22.6976 59.3918 22.6134 59.3076 22.5105 59.3076Z" fill="#274166"/>
<path d="M26.721 61.5065C26.721 61.4035 26.6368 61.3193 26.5339 61.3193C26.4309 61.3193 26.3467 61.4035 26.3467 61.5065V80.6504C26.3842 80.2948 26.4871 79.9205 26.721 79.5743V61.5065Z" fill="#274166"/>
<path d="M26.3467 81.2681V98.3722C26.3467 98.4751 26.4309 98.5593 26.5339 98.5593C26.6368 98.5593 26.721 98.4751 26.721 98.3722V82.5032C26.6368 82.3628 26.59 82.2692 26.5713 82.2318C26.5806 82.2318 26.4029 81.8295 26.3467 81.2681Z" fill="#274166"/>
<path d="M30.5573 59.2612C30.4543 59.2612 30.3701 59.3454 30.3701 59.4484V77.3197C30.3701 77.4227 30.4543 77.5069 30.5573 77.5069C30.6602 77.5069 30.7444 77.4227 30.7444 77.3197V59.4484C30.7444 59.3454 30.6602 59.2612 30.5573 59.2612Z" fill="#274166"/>
<path d="M34.59 61.3193C34.4871 61.3193 34.4029 61.4035 34.4029 61.5065V81.0621C34.4029 81.165 34.4871 81.2492 34.59 81.2492C34.6929 81.2492 34.7771 81.165 34.7771 81.0621V61.5065C34.7771 61.4035 34.6929 61.3193 34.59 61.3193Z" fill="#274166"/>
<path d="M38.6134 59.2612C38.5105 59.2612 38.4263 59.3454 38.4263 59.4484V82.6531C38.4263 82.756 38.5105 82.8402 38.6134 82.8402C38.7163 82.8402 38.8005 82.756 38.8005 82.6531V59.4484C38.8005 59.3454 38.7163 59.2612 38.6134 59.2612Z" fill="#274166"/>
<path d="M42.6368 61.3193C42.5339 61.3193 42.4497 61.4035 42.4497 61.5065V83.2141C42.4497 83.317 42.5339 83.4013 42.6368 83.4013C42.7397 83.4013 42.8239 83.317 42.8239 83.2141V61.5065C42.8239 61.4035 42.7397 61.3193 42.6368 61.3193Z" fill="#274166"/>
<path d="M46.6602 59.2612C46.5573 59.2612 46.4731 59.3454 46.4731 59.4484V82.7467C46.4731 82.8496 46.5573 82.9338 46.6602 82.9338C46.7631 82.9338 46.8473 82.8496 46.8473 82.7467V59.4484C46.8473 59.3454 46.7631 59.2612 46.6602 59.2612Z" fill="#274166"/>
<path d="M50.6836 61.3193C50.5807 61.3193 50.4965 61.4035 50.4965 61.5065V80.7814C50.4965 80.8843 50.5807 80.9685 50.6836 80.9685C50.7865 80.9685 50.8707 80.8843 50.8707 80.7814V61.5065C50.8707 61.4035 50.7959 61.3193 50.6836 61.3193Z" fill="#274166"/>
<path d="M54.7164 59.2612C54.6135 59.2612 54.5293 59.3454 54.5293 59.4484V77.9747C54.5293 78.0776 54.6135 78.1619 54.7164 78.1619C54.8193 78.1619 54.9035 78.0776 54.9035 77.9747V59.4484C54.9035 59.3454 54.8193 59.2612 54.7164 59.2612Z" fill="#274166"/>
<path d="M58.7398 61.3193C58.6369 61.3193 58.5527 61.4035 58.5527 61.5065V86.2083C58.5527 86.3112 58.6369 86.3954 58.7398 86.3954C58.8427 86.3954 58.9269 86.3112 58.9269 86.2083V61.5065C58.9269 61.4035 58.8427 61.3193 58.7398 61.3193Z" fill="#274166"/>
<path d="M62.7632 59.2612C62.6603 59.2612 62.5761 59.3454 62.5761 59.4484V84.1502C62.5761 84.2531 62.6603 84.3373 62.7632 84.3373C62.8661 84.3373 62.9503 84.2531 62.9503 84.1502V59.4484C62.9503 59.3454 62.8661 59.2612 62.7632 59.2612Z" fill="#274166"/>
<path d="M66.7866 61.3193C66.6837 61.3193 66.5995 61.4035 66.5995 61.5065V82.4656C66.5995 82.5685 66.6837 82.6527 66.7866 82.6527C66.8895 82.6527 66.9737 82.5685 66.9737 82.4656V61.5065C66.9737 61.4035 66.8895 61.3193 66.7866 61.3193Z" fill="#274166"/>
<path d="M70.8193 59.0732C70.7164 59.0732 70.6322 59.1575 70.6322 59.2604V82.278C70.6322 82.3809 70.7164 82.4651 70.8193 82.4651C70.9223 82.4651 71.0065 82.3809 71.0065 82.278V59.2604C71.0065 59.1575 70.9223 59.0732 70.8193 59.0732Z" fill="#274166"/>
<path d="M74.8427 61.3193C74.7398 61.3193 74.6556 61.4035 74.6556 61.5065V82.4656C74.6556 82.5685 74.7398 82.6527 74.8427 82.6527C74.9457 82.6527 75.0299 82.5685 75.0299 82.4656V61.5065C75.0299 61.4035 74.9457 61.3193 74.8427 61.3193Z" fill="#274166"/>
<path d="M78.8661 59.2612C78.7632 59.2612 78.679 59.3454 78.679 59.4484V84.1502C78.679 84.2531 78.7632 84.3373 78.8661 84.3373C78.9691 84.3373 79.0533 84.2531 79.0533 84.1502V59.4484C79.0533 59.3454 78.9691 59.2612 78.8661 59.2612Z" fill="#274166"/>
<path d="M82.8895 61.3193C82.7866 61.3193 82.7024 61.4035 82.7024 61.5065V86.2083C82.7024 86.3112 82.7866 86.3954 82.8895 86.3954C82.9925 86.3954 83.0767 86.3112 83.0767 86.2083V61.5065C83.0767 61.4035 82.9925 61.3193 82.8895 61.3193Z" fill="#274166"/>
<path d="M86.9129 59.2612C86.81 59.2612 86.7258 59.3454 86.7258 59.4484V77.9747C86.7258 78.0776 86.81 78.1619 86.9129 78.1619C87.0159 78.1619 87.1001 78.0776 87.1001 77.9747V59.4484C87.1001 59.3454 87.0159 59.2612 86.9129 59.2612Z" fill="#274166"/>
<path d="M90.9457 61.3193C90.8427 61.3193 90.7585 61.4035 90.7585 61.5065V80.7814C90.7585 80.8843 90.8427 80.9685 90.9457 80.9685C91.0486 80.9685 91.1328 80.8843 91.1328 80.7814V61.5065C91.1328 61.4035 91.0486 61.3193 90.9457 61.3193Z" fill="#274166"/>
<path d="M94.9691 59.2612C94.8661 59.2612 94.7819 59.3454 94.7819 59.4484V82.7467C94.7819 82.8496 94.8661 82.9338 94.9691 82.9338C95.072 82.9338 95.1562 82.8496 95.1562 82.7467V59.4484C95.1562 59.3454 95.072 59.2612 94.9691 59.2612Z" fill="#274166"/>
<path d="M98.9925 61.3193C98.8895 61.3193 98.8053 61.4035 98.8053 61.5065V83.2141C98.8053 83.317 98.8895 83.4013 98.9925 83.4013C99.0954 83.4013 99.1796 83.317 99.1796 83.2141V61.5065C99.1796 61.4035 99.0954 61.3193 98.9925 61.3193Z" fill="#274166"/>
<path d="M103.016 59.2612C102.913 59.2612 102.829 59.3454 102.829 59.4484V82.6531C102.829 82.756 102.913 82.8402 103.016 82.8402C103.119 82.8402 103.203 82.756 103.203 82.6531V59.4484C103.203 59.3454 103.119 59.2612 103.016 59.2612Z" fill="#274166"/>
<path d="M107.039 61.3193C106.936 61.3193 106.852 61.4035 106.852 61.5065V81.0621C106.852 81.165 106.936 81.2492 107.039 81.2492C107.142 81.2492 107.226 81.165 107.226 81.0621V61.5065C107.226 61.4035 107.142 61.3193 107.039 61.3193Z" fill="#274166"/>
<path d="M111.072 59.2612C110.969 59.2612 110.885 59.3454 110.885 59.4484V77.3197C110.885 77.4227 110.969 77.5069 111.072 77.5069C111.175 77.5069 111.259 77.4227 111.259 77.3197V59.4484C111.259 59.3454 111.175 59.2612 111.072 59.2612Z" fill="#274166"/>
<path d="M114.908 82.5591V98.372C114.908 98.4749 114.993 98.5591 115.095 98.5591C115.198 98.5591 115.283 98.4749 115.283 98.372V81.5205C115.208 81.9416 115.086 82.2316 115.086 82.2316C115.067 82.269 115.011 82.3813 114.908 82.5591Z" fill="#274166"/>
<path d="M115.283 61.5065C115.283 61.4035 115.198 61.3193 115.095 61.3193C114.993 61.3193 114.908 61.4035 114.908 61.5065V79.5276C115.114 79.8176 115.226 80.1264 115.283 80.4258V61.5065Z" fill="#274166"/>
<path d="M119.119 59.3545C119.016 59.3545 118.932 59.4387 118.932 59.5416V97.4364C118.932 97.5394 119.016 97.6236 119.119 97.6236C119.222 97.6236 119.306 97.5394 119.306 97.4364V59.5416C119.306 59.4387 119.222 59.3545 119.119 59.3545Z" fill="#274166"/>
<path d="M45.9678 133.132C47.4836 133.451 48.8684 133.741 50.1596 133.984V89.0622C48.0824 89.8762 45.631 90.4657 42.9082 90.4657C42.7678 90.4657 42.6275 90.4657 42.4777 90.4563C40.2602 90.4095 38.3233 90.0914 36.6391 89.6236C33.8134 88.8282 31.6988 87.5838 30.1456 86.3394V127.191C33.2707 128.987 38.7257 131.589 45.9678 133.132Z" fill="#BBF6F7"/>
<path d="M96.9153 132.758C102.988 131.317 107.872 129.193 111.54 127.05V86.3296C109.987 87.5834 107.863 88.8372 105.028 89.6232C103.343 90.1004 101.397 90.4091 99.189 90.4559C99.0486 90.4559 98.8989 90.4653 98.7586 90.4653C96.0358 90.4653 93.5937 89.8758 91.5165 89.0711V133.927C93.341 133.572 95.1282 133.179 96.9153 132.758Z" fill="#BBF6F7"/>
<path d="M42.4778 90.4656C42.6181 90.4656 42.7678 90.4749 42.9082 90.4749C45.631 90.4749 48.0824 89.8855 50.1596 89.0714C54.6509 87.3124 57.4298 84.5147 57.5983 84.3463C58.6088 83.3077 58.5901 81.6515 57.5515 80.641C56.5129 79.6305 54.8567 79.6492 53.8462 80.6878C53.7994 80.7346 49.1959 85.3849 42.59 85.2352C34.0941 85.0387 31.3619 80.0796 31.2497 79.8737C31.2497 79.8737 29.8929 77.5907 27.7035 78.7322C27.245 78.9661 26.9362 79.2656 26.721 79.5837C26.4871 79.9299 26.3841 80.3042 26.3467 80.6597C26.328 80.8749 26.328 81.0901 26.3467 81.2866C26.4029 81.8387 26.5713 82.2504 26.5713 82.2504C26.59 82.2784 26.6368 82.372 26.721 82.5217C27.0578 83.1112 27.9935 84.5428 29.7339 86.0305C29.8649 86.1428 29.9959 86.2457 30.1362 86.358C31.6894 87.6024 33.8134 88.8562 36.6298 89.6422C38.3234 90.1007 40.2602 90.4188 42.4778 90.4656Z" fill="#001D46"/>
<path d="M99.189 90.4656C101.407 90.4188 103.343 90.1007 105.028 89.6328C107.863 88.8375 109.987 87.5837 111.54 86.3393C111.671 86.2363 111.802 86.124 111.924 86.0211C113.617 84.5708 114.543 83.186 114.908 82.5685C115.011 82.3907 115.067 82.2784 115.086 82.241C115.086 82.241 115.208 81.9509 115.283 81.5299C115.339 81.2211 115.357 80.8375 115.283 80.4352C115.226 80.1357 115.114 79.827 114.908 79.5369C114.702 79.2375 114.394 78.9568 113.963 78.7322C111.774 77.5907 110.417 79.8737 110.417 79.8737C110.305 80.089 107.563 85.048 99.0767 85.2352C92.4708 85.3849 87.8673 80.7346 87.8205 80.6878C86.81 79.6492 85.1539 79.6305 84.1153 80.641C83.0767 81.6515 83.058 83.3077 84.0685 84.3463C84.2369 84.524 87.0252 87.3217 91.5258 89.0808C93.603 89.8855 96.0451 90.4749 98.7679 90.4749C98.8989 90.4656 99.0393 90.4656 99.189 90.4656Z" fill="#001D46"/>
<path d="M85.7714 106.185C83.0953 103.144 77.3784 100.655 70.7819 100.496C70.7819 100.496 64.4661 100.431 59.3199 103.612C54.1736 106.793 53.1444 109.975 52.583 113.062C52.4333 113.904 52.4146 114.578 52.4894 115.111C56.5128 108.365 70.838 108.496 70.838 108.496C84.1059 108.496 88.41 113.727 89.2147 114.915C89.2895 114.185 89.1492 113.483 89.0743 112.866C88.8965 111.378 88.4568 109.226 85.7714 106.185Z" fill="#EB4F69"/>
<path d="M70.8474 108.496C70.8474 108.496 56.5223 108.365 52.4989 115.111C52.686 116.533 53.472 117.001 53.8088 117.272C54.2766 117.647 57.6451 120.641 70.5574 120.641C81.9726 120.641 84.6206 119.116 86.7445 118.021C88.5691 117.085 89.1212 115.981 89.2241 114.924C88.4194 113.726 84.1153 108.496 70.8474 108.496Z" fill="#FFA2B4"/>
</g>
<defs>
<clipPath id="clip0_211_2288">
<rect width="141.75" height="139.543" fill="white"/>
</clipPath>
</defs>
</svg>
