<svg width="142" height="140" viewBox="0 0 142 140" fill="none" xmlns="http://www.w3.org/2000/svg">
<g clip-path="url(#clip0_211_2632)">
<path d="M95.5304 34.8399C95.5304 34.8399 98.562 28.3182 108.209 20.0094C108.209 20.0094 103.325 16.4164 95.5304 19.5977C86.7164 26.1849 81.7947 32.2387 81.7947 32.2387C81.7947 32.2387 70.9316 30.751 59.8906 32.2387C59.8906 32.2387 54.6602 25.9884 46.4824 19.7662C39.1093 16.3884 33.2426 19.9627 33.2426 19.9627C42.721 28.1592 46.0613 34.7557 46.0613 34.7557C10.0472 44.3183 10.7958 75.13 10.7958 75.13C10.7958 75.13 9.4016 88.4915 12.377 96.847C17.3923 104.36 24.3537 107.523 36.7888 104.36C49.0461 101.254 61.7619 91.102 62.1175 90.8213C61.3503 88.6037 62.3795 87.4529 64.2696 86.33C66.3842 85.0669 70.8473 85.1979 70.8473 85.1979C73.3924 85.3195 75.0017 85.5441 76.7982 86.2739C79.0345 87.1815 80.176 88.7721 79.5865 90.971C83.8813 94.1055 96.7655 103.565 109.921 105.399C123.283 107.252 129.318 96.8564 129.318 96.8564C129.318 96.8564 132.106 89.8014 130.805 75.3265C130.796 75.3078 132.003 44.5896 95.5304 34.8399ZM41.6637 93.1418C41.6637 93.1418 25.7011 83.0833 25.6356 74.6715C25.6075 70.461 29.1256 67.0271 33.5046 66.999C37.8929 66.9709 40.9619 69.0949 41.5046 72.6786C41.8414 69.0949 45.0414 66.9148 49.4298 66.8867C53.8181 66.8587 57.383 70.2458 57.4111 74.447C57.4766 82.8587 41.6637 93.1418 41.6637 93.1418ZM100.143 93.1418C100.143 93.1418 84.1807 83.0833 84.1152 74.6715C84.0871 70.461 87.6053 67.0271 91.9842 66.999C96.3725 66.9709 99.4416 69.0949 99.9842 72.6786C100.321 69.0949 103.521 66.9148 107.909 66.8867C112.298 66.8587 115.863 70.2458 115.891 74.447C115.956 82.8587 100.143 93.1418 100.143 93.1418Z" fill="#2DBECA"/>
<path d="M109.912 105.38C96.7562 103.556 83.8719 94.0869 79.5772 90.9524C79.521 91.1769 79.4368 91.4108 79.3433 91.6541C78.3047 94.2085 74.3842 96.1641 70.838 96.1641C67.2918 96.1641 63.8204 94.4331 62.4543 91.6541C62.314 91.3547 62.1924 91.0834 62.0988 90.812C61.7432 91.1021 49.0274 101.245 36.7701 104.351C24.335 107.504 17.3735 104.351 12.3583 96.8378L5.11621 108.627L14.8659 114.756V125.376H27.1981C27.1981 125.376 34.2625 130.719 46.052 133.226C57.8415 135.734 62.1081 135.921 71.6707 135.921C81.2333 135.921 89.2146 134.714 97.0088 132.861C104.803 131.009 110.651 128.033 114.459 125.348H126.707V114.747L136.541 108.721L129.299 96.8378C129.308 96.8378 123.273 107.233 109.912 105.38ZM88.2415 107.355C87.9702 108.945 87.3714 110.742 86.6415 112.267C86.1269 113.334 85.5468 114.279 84.9667 114.934C83.5632 116.524 81.8789 118.115 76.6392 119.331C71.3994 120.548 67.0953 119.893 64.1947 119.144C61.2941 118.396 58.8614 117.554 56.4286 114.466C55.8672 113.755 55.4087 113.006 55.0251 112.258C53.7339 109.741 53.3222 107.233 53.2473 106.513C53.1537 105.577 52.7795 103.612 53.9023 102.676C55.0251 101.741 57.1771 101.834 57.1771 101.834H84.2088C86.8193 101.834 87.5866 102.489 88.0544 103.051C88.5222 103.612 88.7094 104.641 88.2415 107.355Z" fill="white"/>
<path d="M108.2 20.019C114.207 14.8447 122.777 8.97802 134.782 3.56982C134.782 3.56982 119.372 5.15111 104.803 13.4973C101.36 15.4716 98.2534 17.5675 95.5212 19.6073C103.325 16.426 108.2 20.019 108.2 20.019Z" fill="#143A66"/>
<path d="M33.2332 19.9628C33.2332 19.9628 39.0999 16.3886 46.473 19.7663C43.0765 17.1839 39.1654 14.6014 34.9174 12.4774C20.4425 5.23532 14.2203 4.96398 6.79102 3.56982C18.5992 8.81896 27.17 14.7137 33.2332 19.9628Z" fill="#143A66"/>
<path d="M46.0613 34.7466C46.0613 34.7466 42.7116 28.1501 33.2425 19.9536C27.1794 14.7138 18.6086 8.80968 6.80972 3.56055C6.80972 3.56055 3.84363 16.7442 3.65649 30.5641C3.46936 44.384 5.50913 59.8881 10.805 75.1116C10.7863 75.1209 10.0472 44.3092 46.0613 34.7466Z" fill="white"/>
<path d="M108.2 20.019C98.5621 28.3278 95.5305 34.8401 95.5305 34.8401C132.003 44.5898 130.796 75.308 130.796 75.308C130.796 75.308 136.27 61.198 137.758 41.4366C139.245 21.6658 134.791 3.56982 134.791 3.56982C122.787 8.97802 114.207 14.8447 108.2 20.019Z" fill="white"/>
<path d="M138.403 3.19494C138.403 3.19494 137.842 -0.426116 133.856 0.041721C129.86 0.509558 114.74 3.00781 100.162 12.1026C85.5843 21.1973 80.3913 28.4394 80.3913 28.4394C80.3913 28.4394 71.1094 27.326 61.2755 28.4394C61.2755 28.4394 50.141 15.7236 35.6567 8.76221C21.1725 1.80079 11.9935 0.687336 9.02744 0.228856C6.06135 -0.229625 4.19936 0.322423 3.4134 2.59611C3.4134 2.59611 -0.581935 18.5587 0.0730374 35.6348C0.72801 52.7108 3.60053 66.0723 7.12802 75.5413C7.12802 75.5413 5.96779 87.9296 8.47539 96.3788L2.15959 106.681C2.15959 106.681 1.42041 107.607 1.51398 109.001C1.60754 110.395 2.25316 111.041 3.09527 111.696C3.92802 112.341 11.2637 116.711 11.2637 116.711V125.338C11.2637 125.338 11.2637 128.959 14.9783 128.959H26.1596C26.1596 128.959 32.0544 133.6 45.3316 136.753C58.6088 139.906 71.6896 139.906 81.1586 139.074C90.6276 138.241 103.531 136.472 115.591 129.053L126.174 128.959C126.174 128.959 129.889 129.333 130.347 125.431V116.73L138.515 111.789C138.515 111.789 141.117 110.114 139.722 106.961L133.229 96.3788C133.229 96.3788 135.549 89.7916 134.529 75.7752C134.529 75.7752 139.722 61.9459 141.397 42.0816C143.044 22.2172 138.403 3.19494 138.403 3.19494ZM137.758 41.436C136.27 61.2068 130.796 75.3074 130.796 75.3074C132.097 89.7822 129.308 96.8372 129.308 96.8372L136.551 108.72L126.717 114.746V125.338H114.469C110.66 128.033 104.812 130.999 97.0183 132.851C89.2241 134.704 81.2428 135.911 71.6802 135.911C62.1176 135.911 57.8509 135.724 46.0614 133.216C34.2719 130.709 27.2076 125.366 27.2076 125.366H14.8754V114.746L5.12568 108.617L12.3678 96.8279C9.40171 88.4723 10.7865 75.1109 10.7865 75.1109C5.49995 59.8875 3.45082 44.3927 3.63796 30.5634C3.82509 16.7341 6.79118 3.55986 6.79118 3.55986C14.2204 4.95401 20.4333 5.23471 34.9176 12.4675C39.1655 14.5915 43.0766 17.1739 46.4731 19.7564C54.6509 25.988 59.8907 32.2476 59.8907 32.2476C70.9317 30.7599 81.7948 32.2476 81.7948 32.2476C81.7948 32.2476 86.7165 26.1845 95.5305 19.6067C98.2627 17.5669 101.36 15.4803 104.812 13.4967C119.381 5.14115 134.791 3.56921 134.791 3.56921C134.791 3.56921 139.236 21.6652 137.758 41.436Z" fill="#001D46"/>
<path d="M70.8381 96.1638C74.3843 96.1638 78.3048 94.2176 79.3434 91.6539C79.437 91.4106 79.5212 91.186 79.5773 90.9521C80.1574 88.7533 79.0253 87.1626 76.789 86.255C74.9925 85.5252 73.3831 85.31 70.8381 85.179C70.8381 85.179 66.3749 85.0574 64.2603 86.3112C62.3703 87.4433 61.341 88.5942 62.1083 90.8024C62.2018 91.0644 62.3141 91.3451 62.4638 91.6445C63.8112 94.4328 67.2825 96.1638 70.8381 96.1638Z" fill="#001D46"/>
<path d="M84.2089 101.834H84.1434C83.5071 103.144 82.3469 105.202 81.4767 104.931C80.6066 104.659 80.4756 101.834 80.4756 101.834H61.1258C61.1445 102.769 60.92 104.734 59.9843 104.921C59.0486 105.109 57.458 101.834 57.458 101.834H57.1773C57.1773 101.834 55.0252 101.74 53.9024 102.676C52.7796 103.611 53.1539 105.576 53.2474 106.512C53.3223 107.232 53.7246 109.731 55.0252 112.257C55.0439 112.238 58.7305 107.635 70.7165 107.635C70.7165 107.635 82.7025 107.635 86.6416 112.266C87.3715 110.741 87.9703 108.954 88.2417 107.354C88.7095 104.641 88.5224 103.611 88.0545 103.05C87.5867 102.489 86.8194 101.834 84.2089 101.834Z" fill="#EB4F69"/>
<path d="M70.7071 107.635C58.7211 107.635 55.0346 112.229 55.0159 112.257C55.3995 113.006 55.8673 113.764 56.4194 114.466C58.8521 117.553 61.2849 118.396 64.1855 119.144C67.0861 119.893 71.3902 120.548 76.6299 119.331C81.8697 118.115 83.5539 116.524 84.9575 114.934C85.5376 114.279 86.1177 113.334 86.6323 112.267C82.6931 107.626 70.7071 107.635 70.7071 107.635Z" fill="#FFA2B4"/>
<path d="M59.9843 104.922C60.92 104.735 61.1539 102.77 61.1259 101.834H57.458C57.458 101.834 59.0487 105.109 59.9843 104.922Z" fill="#DFDFDF"/>
<path d="M81.4765 104.932C82.3467 105.203 83.5069 103.144 84.1432 101.834H80.4753C80.4753 101.834 80.597 104.66 81.4765 104.932Z" fill="#DFDFDF"/>
<path d="M49.4391 66.8771C45.0602 66.9052 41.8602 69.0853 41.514 72.669C40.9713 69.0947 37.8929 66.9613 33.514 66.9894C29.135 67.0175 25.6169 70.4608 25.6449 74.6619C25.7104 83.0737 41.673 93.1322 41.673 93.1322C41.673 93.1322 57.4859 82.8491 57.4298 74.428C57.383 70.2362 53.8181 66.8491 49.4391 66.8771Z" fill="#DF1839"/>
<path d="M107.919 66.8771C103.54 66.9052 100.34 69.0853 99.9937 72.669C99.451 69.0947 96.3727 66.9613 91.9937 66.9894C87.6147 67.0175 84.0966 70.4608 84.1247 74.6619C84.1902 83.0737 100.153 93.1322 100.153 93.1322C100.153 93.1322 115.966 82.8491 115.91 74.428C115.863 70.2362 112.298 66.8491 107.919 66.8771Z" fill="#DF1839"/>
</g>
<defs>
<clipPath id="clip0_211_2632">
<rect width="141.75" height="139.543" fill="white"/>
</clipPath>
</defs>
</svg>
