<svg width="142" height="140" viewBox="0 0 142 140" fill="none" xmlns="http://www.w3.org/2000/svg">
<g clip-path="url(#clip0_211_2170)">
<path d="M95.5305 34.8399C95.5305 34.8399 98.5621 28.3182 108.209 20.0094C108.209 20.0094 103.325 16.4164 95.5305 19.5977C86.7165 26.1849 81.7948 32.2387 81.7948 32.2387C81.7948 32.2387 70.9316 30.751 59.8907 32.2387C59.8907 32.2387 54.6603 25.9884 46.4825 19.7662C39.1093 16.3884 33.2427 19.9627 33.2427 19.9627C42.721 28.1592 46.0614 34.7557 46.0614 34.7557C10.0473 44.3183 10.7958 75.13 10.7958 75.13C10.7958 75.13 9.40168 88.4914 12.3771 96.847C17.3923 104.36 24.3538 107.523 36.7889 104.36C49.0462 101.254 61.762 91.102 62.1176 90.8213C61.8837 90.1569 61.8182 89.5862 61.8837 89.0809C58.955 88.7534 57.0275 88.0985 55.8953 86.8072C54.4731 90.185 50.5901 95.1347 40.962 95.1815H40.8965C40.4006 95.1815 39.9234 95.1722 39.4555 95.1628C28.2087 94.8166 26.2438 89.24 25.2707 87.7803C24.2602 86.2552 22.576 78.3674 26.9456 70.8914C31.3152 63.4154 39.1468 63.0692 39.1468 63.0692C39.1468 63.0692 47.0064 62.3393 52.2369 69.4692C52.6298 70.0025 52.9948 70.5359 53.3222 71.0505C54.3421 72.6411 55.0719 74.1382 55.5959 75.523C57.4486 68.8049 62.024 61.1323 70.7445 61.1323C79.465 61.1323 84.265 68.4025 86.4919 74.9803C86.9972 73.7546 87.6708 72.4353 88.5597 71.0505C88.8872 70.5359 89.2521 70.0025 89.6451 69.4692C94.8755 62.3393 102.735 63.0692 102.735 63.0692C102.735 63.0692 110.557 63.4154 114.936 70.8914C119.306 78.3674 117.631 86.2552 116.611 87.7803C115.638 89.24 113.683 94.8166 102.426 95.1628C101.959 95.1815 101.481 95.1815 100.985 95.1815H100.92C91.5071 95.1347 87.5866 90.4002 86.0896 87.0318C84.7515 88.192 82.6369 88.7909 79.6521 89.0903C79.7831 89.6517 79.7644 90.2692 79.5866 90.9523C83.8814 94.0868 96.7656 103.546 109.921 105.38C123.283 107.233 129.318 96.8377 129.318 96.8377C129.318 96.8377 132.106 89.7827 130.805 75.3078C130.796 75.3078 132.003 44.5896 95.5305 34.8399Z" fill="#2DBECA"/>
<path d="M109.912 105.38C96.7562 103.556 83.872 94.0869 79.5772 90.9524C79.5211 91.1769 79.4369 91.4108 79.3433 91.6541C78.3047 94.2085 74.3843 96.1641 70.8381 96.1641C67.2918 96.1641 63.8205 94.4331 62.4544 91.6541C62.314 91.3547 62.1924 91.0834 62.0988 90.812C61.7433 91.1021 49.0275 101.245 36.7701 104.351C24.335 107.504 17.3736 104.351 12.3584 96.8378L5.11627 108.627L14.866 114.756V125.376H27.1982C27.1982 125.376 34.2625 130.719 46.052 133.226C57.8415 135.734 62.1082 135.921 71.6708 135.921C81.2334 135.921 89.2147 134.714 97.0089 132.861C104.803 131.009 110.651 128.033 114.459 125.348H126.707V114.747L136.541 108.721L129.299 96.8378C129.308 96.8378 123.273 107.233 109.912 105.38ZM88.0545 116.057C87.858 116.506 87.6334 117.189 87.0439 117.862C86.5293 118.452 85.7246 119.032 84.4053 119.425C81.5983 120.267 77.4813 120.033 70.7445 120.033C64.0076 120.033 60.7328 119.986 59.7035 119.893C58.8521 119.818 56.1573 119.416 54.6602 117.862C54.3421 117.535 54.0801 117.151 53.9023 116.711C52.8731 114.185 52.686 110.817 53.3409 109.039C53.8368 107.692 54.3889 106.017 56.4287 104.679C57.0743 104.258 57.8696 103.865 58.8614 103.518C59.3012 103.369 59.7877 103.238 60.293 103.116C64.5503 102.115 70.7445 102.087 70.7445 102.087C75.3199 102.087 79.1094 102.676 81.4299 103.2C81.7667 103.275 82.0755 103.35 82.3468 103.425C83.3854 103.696 84.4053 104.014 85.341 104.651C86.3515 105.334 87.2778 106.391 88.0545 108.159C89.5515 111.575 88.4287 115.214 88.0545 116.057Z" fill="white"/>
<path d="M108.2 20.019C114.207 14.8447 122.777 8.97802 134.782 3.56982C134.782 3.56982 119.371 5.15111 104.803 13.4973C101.36 15.4716 98.2533 17.5675 95.5211 19.6073C103.325 16.426 108.2 20.019 108.2 20.019Z" fill="#143A66"/>
<path d="M33.2333 19.9628C33.2333 19.9628 39.1 16.3886 46.4731 19.7663C43.0766 17.1839 39.1655 14.6014 34.9175 12.4774C20.4426 5.23532 14.2204 4.96398 6.79112 3.56982C18.5993 8.81896 27.1701 14.7137 33.2333 19.9628Z" fill="#143A66"/>
<path d="M46.0614 34.7466C46.0614 34.7466 42.7117 28.1501 33.2427 19.9536C27.1795 14.7138 18.6087 8.80968 6.80985 3.56055C6.80985 3.56055 3.84377 16.7442 3.65663 30.5641C3.4695 44.384 5.50927 59.8881 10.8052 75.1116C10.7865 75.1209 10.0473 44.3092 46.0614 34.7466Z" fill="white"/>
<path d="M108.2 20.019C98.5621 28.3278 95.5305 34.8401 95.5305 34.8401C132.003 44.5898 130.796 75.308 130.796 75.308C130.796 75.308 136.27 61.198 137.757 41.4366C139.245 21.6658 134.791 3.56982 134.791 3.56982C122.787 8.97802 114.207 14.8447 108.2 20.019Z" fill="white"/>
<path d="M138.403 3.19494C138.403 3.19494 137.842 -0.426116 133.856 0.041721C129.86 0.509558 114.74 3.00781 100.162 12.1026C85.5842 21.1973 80.3912 28.4394 80.3912 28.4394C80.3912 28.4394 71.1093 27.326 61.2754 28.4394C61.2754 28.4394 50.1409 15.7236 35.6566 8.76221C21.1724 1.80079 11.9934 0.687336 9.02732 0.228856C6.06123 -0.229625 4.19924 0.322423 3.41327 2.59611C3.41327 2.59611 -0.582057 18.5587 0.0729154 35.6348C0.727887 52.7108 3.60041 66.0723 7.1279 75.5413C7.1279 75.5413 5.96766 87.9296 8.47527 96.3788L2.15947 106.681C2.15947 106.681 1.42029 107.607 1.51385 109.001C1.60742 110.395 2.25304 111.041 3.09514 111.696C3.92789 112.341 11.2636 116.711 11.2636 116.711V125.338C11.2636 125.338 11.2636 128.959 14.9782 128.959H26.1595C26.1595 128.959 32.0543 133.6 45.3315 136.753C58.6087 139.906 71.6894 139.906 81.1585 139.074C90.6275 138.241 103.53 136.472 115.591 129.053L126.174 128.959C126.174 128.959 129.888 129.333 130.347 125.431V116.73L138.515 111.789C138.515 111.789 141.116 110.114 139.722 106.961L133.229 96.3788C133.229 96.3788 135.549 89.7916 134.529 75.7752C134.529 75.7752 139.722 61.9459 141.397 42.0816C143.044 22.2172 138.403 3.19494 138.403 3.19494ZM137.757 41.436C136.27 61.2068 130.796 75.3074 130.796 75.3074C132.097 89.7822 129.308 96.8372 129.308 96.8372L136.55 108.72L126.716 114.746V125.338H114.468C110.66 128.033 104.812 130.999 97.0181 132.851C89.224 134.704 81.2427 135.911 71.6801 135.911C62.1175 135.911 57.8508 135.724 46.0613 133.216C34.2718 130.709 27.2075 125.366 27.2075 125.366H14.8753V114.746L5.12556 108.617L12.3677 96.8279C9.40159 88.4723 10.7864 75.1109 10.7864 75.1109C5.49983 59.8875 3.4507 44.3927 3.63784 30.5634C3.82497 16.7341 6.79106 3.55986 6.79106 3.55986C14.2203 4.95401 20.4332 5.23471 34.9174 12.4675C39.1654 14.5915 43.0765 17.1739 46.473 19.7564C54.6508 25.988 59.8906 32.2476 59.8906 32.2476C70.9315 30.7599 81.7947 32.2476 81.7947 32.2476C81.7947 32.2476 86.7164 26.1845 95.5304 19.6067C98.2626 17.5669 101.36 15.4803 104.812 13.4967C119.381 5.14115 134.791 3.56921 134.791 3.56921C134.791 3.56921 139.236 21.6652 137.757 41.436Z" fill="#001D46"/>
<path d="M64.2603 86.3201C66.3749 85.0569 70.838 85.1879 70.838 85.1879C73.3831 85.3096 74.9924 85.5341 76.7889 86.264C78.3328 86.8909 79.3527 87.8453 79.6521 89.0991C82.6369 88.7996 84.7515 88.2008 86.0895 87.0406C85.5936 85.9178 85.3597 84.954 85.2755 84.3646C85.0509 82.6523 84.7047 79.3681 86.5012 74.9891C84.2743 68.4207 79.2404 61.1411 70.7538 61.1411C62.2673 61.1411 57.4579 68.8136 55.5959 75.5224C57.1491 79.63 56.8216 82.7178 56.6064 84.3646C56.5316 84.9166 56.3257 85.7961 55.8953 86.816C57.0275 88.1072 58.955 88.7622 61.8836 89.0897C62.0333 87.9108 62.9316 87.1061 64.2603 86.3201Z" fill="#1B93AF"/>
<path d="M70.838 96.1638C74.3842 96.1638 78.3047 94.2176 79.3433 91.6539C79.4369 91.4106 79.5211 91.186 79.5772 90.9521C79.755 90.2784 79.7737 89.6515 79.6427 89.0901C79.3527 87.8363 78.3328 86.8726 76.7796 86.255C74.9831 85.5252 73.3737 85.31 70.8287 85.179C70.8287 85.179 66.3655 85.0574 64.2509 86.3112C62.9316 87.0971 62.024 87.9018 61.8649 89.0714C61.7994 89.5767 61.8649 90.1474 62.0988 90.8118C62.1924 91.0737 62.3047 91.3544 62.4544 91.6539C63.8111 94.4328 67.2825 96.1638 70.838 96.1638Z" fill="#001D46"/>
<path d="M55.5865 75.5135C55.0626 74.138 54.3327 72.641 53.3129 71.041C52.9854 70.5263 52.6205 69.993 52.2275 69.4597C46.9971 62.3298 39.1374 63.0597 39.1374 63.0597C39.1374 63.0597 31.3152 63.4058 26.9362 70.8819C22.5666 78.3579 24.2415 86.2457 25.2613 87.7708C26.2344 89.2305 28.19 94.8071 39.4462 95.1533C39.914 95.172 40.3912 95.172 40.8871 95.172H40.9526C50.5807 95.1252 54.4637 90.1661 55.886 86.7977C56.3164 85.7778 56.5222 84.8983 56.5971 84.3462C56.8123 82.7088 57.1398 79.6211 55.5865 75.5135ZM41.5046 89.296C36.6766 89.296 32.7561 85.3755 32.7561 80.5474C32.7561 78.7041 33.3269 77.0012 34.2906 75.5883C34.2625 75.7661 34.2532 75.9532 34.2532 76.1497C34.2532 78.2456 35.9467 79.9392 38.0427 79.9392C40.1386 79.9392 41.8321 78.2456 41.8321 76.1497C41.8321 74.1661 40.3163 72.5474 38.3795 72.379C39.3526 72.0047 40.4099 71.7988 41.5046 71.7988C46.3327 71.7988 50.2532 75.7193 50.2532 80.5474C50.2532 85.3755 46.3327 89.296 41.5046 89.296Z" fill="white"/>
<path d="M41.5046 71.7988C40.4005 71.7988 39.3432 72.0047 38.3795 72.3789C40.3163 72.5474 41.8321 74.1754 41.8321 76.1497C41.8321 78.2456 40.1386 79.9392 38.0426 79.9392C35.9467 79.9392 34.2532 78.2456 34.2532 76.1497C34.2532 75.9626 34.2719 75.7754 34.2906 75.5883C33.3175 77.0012 32.7561 78.7041 32.7561 80.5474C32.7561 85.3755 36.6766 89.2959 41.5046 89.2959C46.3327 89.2959 50.2532 85.3755 50.2532 80.5474C50.2532 75.7193 46.3327 71.7988 41.5046 71.7988Z" fill="#001125"/>
<path d="M85.2662 84.356C85.341 84.9455 85.5749 85.9186 86.0802 87.032C87.5773 90.4005 91.4978 95.135 100.911 95.1818H100.976C101.472 95.1818 101.949 95.1724 102.417 95.163C113.664 94.8168 115.629 89.2402 116.602 87.7806C117.612 86.2554 119.297 78.3677 114.927 70.8917C110.557 63.4156 102.726 63.0694 102.726 63.0694C102.726 63.0694 94.8662 62.3396 89.6358 69.4694C89.2428 70.0028 88.8779 70.5361 88.5504 71.0507C87.6615 72.4449 86.9878 73.7548 86.4826 74.9805C84.6954 79.3595 85.0416 82.6437 85.2662 84.356ZM100.359 71.7993C101.463 71.7993 102.52 72.0051 103.484 72.3794C101.547 72.5478 100.031 74.1759 100.031 76.1501C100.031 78.2461 101.725 79.9396 103.821 79.9396C105.917 79.9396 107.61 78.2461 107.61 76.1501C107.61 75.963 107.591 75.7759 107.573 75.5887C108.546 77.0016 109.107 78.7045 109.107 80.5478C109.107 85.3759 105.187 89.2964 100.359 89.2964C95.5305 89.2964 91.6101 85.3759 91.6101 80.5478C91.6101 75.7197 95.5305 71.7993 100.359 71.7993Z" fill="white"/>
<path d="M100.359 89.2959C105.187 89.2959 109.107 85.3755 109.107 80.5474C109.107 78.7041 108.536 77.0012 107.573 75.5883C107.601 75.7661 107.61 75.9532 107.61 76.1497C107.61 78.2456 105.916 79.9392 103.821 79.9392C101.725 79.9392 100.031 78.2456 100.031 76.1497C100.031 74.1661 101.547 72.5474 103.484 72.3789C102.511 72.0047 101.453 71.7988 100.359 71.7988C95.5305 71.7988 91.61 75.7193 91.61 80.5474C91.61 85.3755 95.5305 89.2959 100.359 89.2959Z" fill="#001125"/>
<path d="M85.341 104.651L85.3129 104.679C85.3129 104.679 82.693 108.197 81.3831 107.916C80.3351 107.692 81.0837 104.482 81.4205 103.2C79.1001 102.676 75.3106 102.087 70.7351 102.087C70.7351 102.087 64.541 102.106 60.2836 103.116C60.6111 104.333 61.4158 107.692 60.3491 107.916C59.0485 108.197 56.438 104.707 56.4193 104.679C54.3795 106.017 53.8275 107.692 53.3316 109.039C52.6766 110.817 52.8637 114.185 53.893 116.711C54.0708 117.151 54.3328 117.535 54.6509 117.862C58.5901 112.931 70.8287 112.959 70.8287 112.959C83.4603 112.959 87.0252 117.862 87.0252 117.862C87.6147 117.189 87.8393 116.506 88.0357 116.057C88.41 115.214 89.5328 111.575 88.0357 108.159C87.2778 106.391 86.3515 105.334 85.341 104.651Z" fill="#EB4F69"/>
<path d="M70.838 112.959C70.838 112.959 58.5994 112.931 54.6602 117.862C56.1573 119.425 58.8521 119.818 59.7035 119.893C60.7328 119.986 64.0076 120.033 70.7445 120.033C77.4813 120.033 81.5983 120.267 84.4053 119.425C85.7153 119.032 86.52 118.452 87.0439 117.862C87.0439 117.862 83.4697 112.959 70.838 112.959Z" fill="#FFA2B4"/>
<path d="M60.3585 107.915C61.4252 107.681 60.6205 104.332 60.293 103.115C59.7784 103.237 59.3012 103.368 58.8614 103.518C57.8696 103.854 57.0743 104.247 56.4287 104.678C56.4474 104.706 59.0579 108.196 60.3585 107.915Z" fill="#DFDFDF"/>
<path d="M81.3831 107.916C82.693 108.197 85.3129 104.679 85.3129 104.679L85.341 104.65C84.396 104.014 83.3854 103.696 82.3468 103.425C82.0755 103.35 81.7667 103.275 81.4299 103.2C81.0837 104.482 80.3445 107.691 81.3831 107.916Z" fill="#DFDFDF"/>
</g>
<defs>
<clipPath id="clip0_211_2170">
<rect width="141.75" height="139.543" fill="white"/>
</clipPath>
</defs>
</svg>
