<svg width="142" height="140" viewBox="0 0 142 140" fill="none" xmlns="http://www.w3.org/2000/svg">
<g clip-path="url(#clip0_211_2103)">
<path d="M95.5305 34.8399C95.5305 34.8399 98.5621 28.3182 108.209 20.0094C108.209 20.0094 103.325 16.4164 95.5305 19.5977C86.7165 26.1849 81.7948 32.2387 81.7948 32.2387C81.7948 32.2387 70.9316 30.751 59.8907 32.2387C59.8907 32.2387 54.6603 25.9884 46.4825 19.7662C39.1093 16.3884 33.2427 19.9627 33.2427 19.9627C42.721 28.1592 46.0614 34.7557 46.0614 34.7557C10.0473 44.3183 10.7958 75.13 10.7958 75.13C10.7958 75.13 9.40168 88.4915 12.3771 96.847C17.3923 104.36 24.3538 107.523 36.7889 104.36C49.0462 101.254 61.762 91.102 62.1176 90.8213C61.3503 88.6037 62.3796 87.4529 64.2696 86.33C66.3843 85.0669 70.8474 85.1979 70.8474 85.1979C73.3925 85.3195 75.0018 85.5441 76.7983 86.2739C79.0346 87.1815 80.1761 88.7721 79.5866 90.971C83.8814 94.1055 96.7656 103.565 109.921 105.399C123.283 107.252 129.318 96.8564 129.318 96.8564C129.318 96.8564 132.106 89.8014 130.805 75.3265C130.796 75.3078 132.003 44.5896 95.5305 34.8399ZM34.1128 102.957C29.7432 102.957 26.2064 101.656 26.2064 100.056C26.2064 98.4564 29.7432 97.1558 34.1128 97.1558C38.4824 97.1558 42.0193 98.4564 42.0193 100.056C42.0193 101.656 38.4824 102.957 34.1128 102.957ZM53.9024 89.109C51.6474 91.364 47.1187 94.0587 38.2953 93.488C37.9772 93.4692 37.659 93.4412 37.3409 93.4131C27.8906 92.571 25.0836 87.4248 24.4286 84.5242C23.7736 81.6236 23.3058 75.6353 27.5163 68.8049C27.6005 68.6739 27.6848 68.5429 27.769 68.4119C28.2181 67.7288 28.7046 67.1206 29.2099 66.5779C33.5047 61.9744 39.3994 61.9744 39.3994 61.9744C46.2392 61.5721 51.4322 66.316 54.2392 71.275C55.3807 73.3055 56.1293 75.3639 56.4287 77.1324C57.4579 83.2142 56.2415 86.7698 53.9024 89.109ZM107.75 102.957C103.381 102.957 99.844 101.656 99.844 100.056C99.844 98.4564 103.381 97.1558 107.75 97.1558C112.12 97.1558 115.657 98.4564 115.657 100.056C115.657 101.656 112.12 102.957 107.75 102.957ZM117.285 84.5242C116.63 87.4248 113.823 92.571 104.373 93.4131C104.045 93.4412 103.727 93.4692 103.418 93.488C94.6042 94.0587 90.0755 91.3733 87.8112 89.109C85.5469 86.8447 84.2556 83.2142 85.2849 77.1324C85.5843 75.3639 86.3328 73.3055 87.4744 71.275C90.2814 66.316 95.465 61.5721 102.314 61.9744C102.314 61.9744 108.209 61.9744 112.504 66.5779C113.009 67.1206 113.495 67.7288 113.945 68.4119C114.029 68.5429 114.113 68.6739 114.197 68.8049C118.408 75.6353 117.94 81.6236 117.285 84.5242Z" fill="#2DBECA"/>
<path d="M109.912 105.38C96.7562 103.556 83.872 94.0869 79.5772 90.9524C79.5211 91.1769 79.4369 91.4108 79.3433 91.6541C78.3047 94.2085 74.3843 96.1641 70.8381 96.1641C67.2918 96.1641 63.8205 94.4331 62.4544 91.6541C62.314 91.3547 62.1924 91.0834 62.0988 90.812C61.7433 91.1021 49.0275 101.245 36.7701 104.351C24.335 107.504 17.3736 104.351 12.3584 96.8378L5.11627 108.627L14.866 114.756V125.376H27.1982C27.1982 125.376 34.2625 130.719 46.052 133.226C57.8415 135.734 62.1082 135.921 71.6708 135.921C81.2334 135.921 89.2147 134.714 97.0089 132.861C104.803 131.009 110.651 128.033 114.459 125.348H126.707V114.747L136.541 108.721L129.299 96.8378C129.308 96.8378 123.273 107.233 109.912 105.38ZM87.7457 109.497C87.4556 110.134 87.1001 110.92 86.6229 111.762C86.3702 112.211 86.0802 112.679 85.7433 113.137C85.7433 113.137 80.9714 119.752 70.8193 119.752C60.6673 119.752 55.886 113.175 55.886 113.175C55.5678 112.772 55.2684 112.314 54.969 111.799C54.548 111.06 54.155 110.18 53.762 109.104C52.2743 104.941 53.0883 102.854 53.762 102.311C54.4357 101.769 55.1094 101.254 57.2801 101.254H84.134C84.134 101.254 85.9773 101.254 87.1562 101.797C88.3352 102.34 88.541 103.172 88.6814 103.78C88.8124 104.398 88.5691 107.738 87.7457 109.497Z" fill="white"/>
<path d="M108.2 20.019C114.207 14.8447 122.777 8.97802 134.782 3.56982C134.782 3.56982 119.371 5.15111 104.803 13.4973C101.36 15.4716 98.2533 17.5675 95.5211 19.6073C103.325 16.426 108.2 20.019 108.2 20.019Z" fill="#143A66"/>
<path d="M33.2333 19.9628C33.2333 19.9628 39.1 16.3886 46.4731 19.7663C43.0766 17.1839 39.1655 14.6014 34.9175 12.4774C20.4426 5.23532 14.2204 4.96398 6.79112 3.56982C18.5993 8.81896 27.1701 14.7137 33.2333 19.9628Z" fill="#143A66"/>
<path d="M46.0613 34.7466C46.0613 34.7466 42.7116 28.1501 33.2426 19.9536C27.1794 14.7138 18.6086 8.80968 6.80979 3.56055C6.80979 3.56055 3.84371 16.7442 3.65657 30.5641C3.46944 44.384 5.50921 59.8881 10.8051 75.1116C10.7864 75.1209 10.0472 44.3092 46.0613 34.7466Z" fill="white"/>
<path d="M108.2 20.019C98.5621 28.3278 95.5305 34.8401 95.5305 34.8401C132.003 44.5898 130.796 75.308 130.796 75.308C130.796 75.308 136.27 61.198 137.757 41.4366C139.245 21.6658 134.791 3.56982 134.791 3.56982C122.787 8.97802 114.207 14.8447 108.2 20.019Z" fill="white"/>
<path d="M138.403 3.19494C138.403 3.19494 137.842 -0.426116 133.856 0.041721C129.86 0.509558 114.74 3.00781 100.162 12.1026C85.5842 21.1973 80.3912 28.4394 80.3912 28.4394C80.3912 28.4394 71.1093 27.326 61.2754 28.4394C61.2754 28.4394 50.1409 15.7236 35.6566 8.76221C21.1724 1.80079 11.9934 0.687336 9.02732 0.228856C6.06123 -0.229625 4.19924 0.322423 3.41327 2.59611C3.41327 2.59611 -0.582057 18.5587 0.0729154 35.6348C0.727887 52.7108 3.60041 66.0723 7.1279 75.5413C7.1279 75.5413 5.96766 87.9296 8.47527 96.3788L2.15947 106.681C2.15947 106.681 1.42029 107.607 1.51385 109.001C1.60742 110.395 2.25304 111.041 3.09514 111.696C3.92789 112.341 11.2636 116.711 11.2636 116.711V125.338C11.2636 125.338 11.2636 128.959 14.9782 128.959H26.1595C26.1595 128.959 32.0543 133.6 45.3315 136.753C58.6087 139.906 71.6894 139.906 81.1585 139.074C90.6275 138.241 103.53 136.472 115.591 129.053L126.174 128.959C126.174 128.959 129.888 129.333 130.347 125.431V116.73L138.515 111.789C138.515 111.789 141.116 110.114 139.722 106.961L133.229 96.3788C133.229 96.3788 135.549 89.7916 134.529 75.7752C134.529 75.7752 139.722 61.9459 141.397 42.0816C143.044 22.2172 138.403 3.19494 138.403 3.19494ZM137.757 41.436C136.27 61.2068 130.796 75.3074 130.796 75.3074C132.097 89.7822 129.308 96.8372 129.308 96.8372L136.55 108.72L126.716 114.746V125.338H114.468C110.66 128.033 104.812 130.999 97.0181 132.851C89.224 134.704 81.2427 135.911 71.6801 135.911C62.1175 135.911 57.8508 135.724 46.0613 133.216C34.2718 130.709 27.2075 125.366 27.2075 125.366H14.8753V114.746L5.12556 108.617L12.3677 96.8279C9.40159 88.4723 10.7864 75.1109 10.7864 75.1109C5.49983 59.8875 3.4507 44.3927 3.63784 30.5634C3.82497 16.7341 6.79106 3.55986 6.79106 3.55986C14.2203 4.95401 20.4332 5.23471 34.9174 12.4675C39.1654 14.5915 43.0765 17.1739 46.473 19.7564C54.6508 25.988 59.8906 32.2476 59.8906 32.2476C70.9315 30.7599 81.7947 32.2476 81.7947 32.2476C81.7947 32.2476 86.7164 26.1845 95.5304 19.6067C98.2626 17.5669 101.36 15.4803 104.812 13.4967C119.381 5.14115 134.791 3.56921 134.791 3.56921C134.791 3.56921 139.236 21.6652 137.757 41.436Z" fill="#001D46"/>
<path d="M70.838 96.1638C74.3843 96.1638 78.3047 94.2176 79.3433 91.6539C79.4369 91.4106 79.5211 91.186 79.5772 90.9521C80.1574 88.7533 79.0252 87.1626 76.7889 86.255C74.9924 85.5252 73.3831 85.31 70.838 85.179C70.838 85.179 66.3749 85.0574 64.2603 86.3112C62.3702 87.4433 61.341 88.5942 62.1082 90.8024C62.2018 91.0644 62.3141 91.3451 62.4638 91.6445C63.8111 94.4328 67.2825 96.1638 70.838 96.1638Z" fill="#001D46"/>
<path d="M36.7795 68.5617C38.8567 67.3454 41.2614 66.653 43.8438 66.653C44.9854 66.653 46.0988 66.7933 47.1655 67.0459C47.231 66.4658 47.2591 66.0915 47.2591 66.0915C47.2871 66.4097 47.3246 66.7465 47.3713 67.1021C50.0567 67.8038 52.4333 69.2822 54.2392 71.2752C51.4322 66.3161 46.2485 61.5722 39.3994 61.9746C39.3994 61.9746 33.5046 61.9746 29.2099 66.5781C30.0427 65.9231 31.1 65.5301 32.2415 65.5301C34.2906 65.5301 36.0403 66.7839 36.7795 68.5617Z" fill="#003B81"/>
<path d="M32.5783 88.9313C32.4192 89.6892 32.3631 90.3535 32.3631 90.3535C32.2415 89.3804 32.1385 88.5944 31.9327 87.9863C31.7362 87.6681 31.5491 87.3406 31.3807 87.0132C31.3432 86.9664 31.2964 86.9289 31.2497 86.8822C30.5105 86.2272 29.0321 86.0213 29.0321 86.0213C29.7713 85.9184 30.2766 85.7781 30.7257 85.5254C30.1643 84.0096 29.8555 82.3722 29.8555 80.6599C29.8555 78.7231 30.2485 76.8798 30.9596 75.2049C28.8637 74.6435 27.3292 72.7348 27.3292 70.4611C27.3292 69.7406 27.4882 69.0482 27.7689 68.4307C27.6847 68.5617 27.6005 68.6927 27.5163 68.8236C23.3058 75.6541 23.7736 81.6424 24.4286 84.543C25.0836 87.4436 27.8906 92.5898 37.3409 93.4319C37.6684 93.46 37.9865 93.488 38.2953 93.5067C36.0122 92.4962 34.038 90.9149 32.5783 88.9313Z" fill="#003B81"/>
<path d="M54.2392 71.2751C52.4333 69.2727 50.0661 67.7944 47.3713 67.102C47.6707 69.3008 48.3819 72.1452 49.5047 73.6704C50.8146 75.4482 54.7632 75.9815 54.7632 75.9815C54.7632 75.9815 50.8146 76.4774 49.224 78.723C47.6333 80.9686 47.259 85.8809 47.259 85.8809C46.7912 81.9979 46.4169 79.4716 44.7327 77.9745C43.0485 76.4774 39.6801 76.0096 39.6801 76.0096C42.3 75.6353 43.6099 75.0739 45.2006 73.6704C46.3982 72.6131 46.9596 68.8423 47.1655 67.0458C46.0988 66.7838 44.9854 66.6528 43.8438 66.6528C41.2707 66.6528 38.8567 67.3546 36.7795 68.5616C37.0228 69.1417 37.1538 69.778 37.1538 70.4423C37.1538 73.1558 34.9549 75.3546 32.2415 75.3546C31.8017 75.3546 31.3713 75.2985 30.9596 75.1862C30.2485 76.861 29.8555 78.7043 29.8555 80.6412C29.8555 82.3534 30.1643 83.9909 30.7257 85.5067C30.9783 85.3663 31.2029 85.1979 31.4555 84.9733C32.1573 84.3558 32.3631 81.6423 32.3631 81.6423C32.4473 82.6248 32.7748 84.1967 33.3456 84.9733C33.9257 85.7593 35.6567 85.9932 35.6567 85.9932C35.6567 85.9932 33.9257 86.2084 33.2239 87.2002C32.9152 87.64 32.7093 88.3137 32.5783 88.9312C34.038 90.9149 36.0122 92.4962 38.3046 93.488C47.1187 94.0587 51.6474 91.3734 53.9117 89.109C56.2509 86.7698 57.4673 83.2143 56.438 77.1324C56.1292 75.364 55.3807 73.3055 54.2392 71.2751ZM33.1771 79.1909C32.6906 79.1909 32.2883 78.7885 32.2883 78.302C32.2883 77.8154 32.6906 77.4131 33.1771 77.4131C33.6637 77.4131 34.066 77.8154 34.066 78.302C34.066 78.7885 33.6637 79.1909 33.1771 79.1909Z" fill="#001125"/>
<path d="M31.9327 87.977C31.8017 87.584 31.6239 87.2659 31.3807 87.0039C31.5491 87.3314 31.7362 87.6589 31.9327 87.977Z" fill="#001125"/>
<path d="M30.9596 75.1859C31.3713 75.2982 31.8017 75.3544 32.2415 75.3544C34.9549 75.3544 37.1538 73.1555 37.1538 70.4421C37.1538 69.7777 37.0228 69.1415 36.7795 68.5614C36.0403 66.7836 34.2906 65.5298 32.2415 65.5298C31.0999 65.5298 30.0426 65.9228 29.2099 66.5777C28.7046 67.1204 28.2181 67.7286 27.7689 68.4117C27.4882 69.0292 27.3292 69.7216 27.3292 70.4421C27.3292 72.7158 28.873 74.6245 30.9596 75.1859Z" fill="white"/>
<path d="M47.1655 67.0457C46.9596 68.8328 46.3982 72.6036 45.2006 73.6703C43.6099 75.0738 42.3 75.6352 39.6801 76.0095C39.6801 76.0095 43.0485 76.4773 44.7327 77.9744C46.4169 79.4715 46.7912 81.9978 47.259 85.8808C47.259 85.8808 47.6333 80.9685 49.224 78.7229C50.8146 76.4773 54.7632 75.9814 54.7632 75.9814C54.7632 75.9814 50.8146 75.4481 49.5047 73.6703C48.3819 72.1451 47.6707 69.3007 47.3713 67.1018C47.3245 66.7463 47.2871 66.4094 47.259 66.0913C47.259 66.0913 47.231 66.4656 47.1655 67.0457Z" fill="white"/>
<path d="M31.2497 86.8726C31.2964 86.91 31.3432 86.9568 31.3806 87.0036C31.6239 87.2656 31.8017 87.5837 31.9327 87.9767C32.1385 88.5849 32.2415 89.3708 32.3631 90.3439C32.3631 90.3439 32.4099 89.6796 32.5783 88.9217C32.7093 88.3135 32.9152 87.6398 33.2239 87.1907C33.9257 86.2083 35.6567 85.9837 35.6567 85.9837C35.6567 85.9837 33.9257 85.7498 33.3456 84.9638C32.7654 84.1778 32.438 82.6153 32.3631 81.6328C32.3631 81.6328 32.1573 84.3463 31.4555 84.9638C31.2029 85.179 30.9783 85.3568 30.7257 85.4971C30.2766 85.7498 29.7713 85.8901 29.0321 85.9931C29.0321 86.0118 30.5105 86.2176 31.2497 86.8726Z" fill="white"/>
<path d="M33.1771 79.1909C33.6681 79.1909 34.066 78.7929 34.066 78.302C34.066 77.8111 33.6681 77.4131 33.1771 77.4131C32.6862 77.4131 32.2883 77.8111 32.2883 78.302C32.2883 78.7929 32.6862 79.1909 33.1771 79.1909Z" fill="white"/>
<path d="M94.3422 67.1021C94.389 66.7465 94.4264 66.4097 94.4545 66.0915C94.4545 66.0915 94.4826 66.4658 94.5481 67.0459C95.6147 66.7839 96.7282 66.653 97.8697 66.653C100.443 66.653 102.857 67.3547 104.934 68.5617C105.673 66.7839 107.423 65.5301 109.472 65.5301C110.614 65.5301 111.671 65.9231 112.504 66.5781C108.209 61.9746 102.314 61.9746 102.314 61.9746C95.4744 61.5722 90.2814 66.3161 87.4744 71.2752C89.2802 69.2822 91.6568 67.8038 94.3422 67.1021Z" fill="#003B81"/>
<path d="M113.945 68.4116C114.225 69.0292 114.384 69.7216 114.384 70.442C114.384 72.7157 112.84 74.6245 110.754 75.1859C111.465 76.8608 111.858 78.704 111.858 80.6409C111.858 82.3532 111.549 83.9906 110.988 85.5064C111.437 85.759 111.942 85.8994 112.681 86.0023C112.681 86.0023 111.203 86.2081 110.464 86.8631C110.417 86.9005 110.37 86.9473 110.333 86.9941C110.164 87.331 109.977 87.6491 109.781 87.9672C109.575 88.5754 109.472 89.3614 109.35 90.3345C109.35 90.3345 109.304 89.6701 109.135 88.9122C107.676 90.8959 105.701 92.4772 103.409 93.469C103.727 93.4503 104.045 93.4222 104.363 93.3941C113.814 92.552 116.621 87.4058 117.276 84.5052C117.931 81.6046 118.398 75.6163 114.188 68.7859C114.113 68.6736 114.029 68.5426 113.945 68.4116Z" fill="#003B81"/>
<path d="M109.135 88.9312C109.004 88.3231 108.798 87.6494 108.49 87.2002C107.788 86.2178 106.057 85.9932 106.057 85.9932C106.057 85.9932 107.788 85.7593 108.368 84.9733C108.948 84.1874 109.276 82.6248 109.35 81.6423C109.35 81.6423 109.556 84.3558 110.258 84.9733C110.501 85.1885 110.735 85.3663 110.988 85.5067C111.549 83.9909 111.858 82.3534 111.858 80.6412C111.858 78.7043 111.465 76.861 110.754 75.1862C110.342 75.2985 109.912 75.3546 109.472 75.3546C106.759 75.3546 104.56 73.1558 104.56 70.4423C104.56 69.778 104.691 69.1417 104.934 68.5616C102.857 67.3452 100.452 66.6528 97.8697 66.6528C96.7282 66.6528 95.6147 66.7932 94.548 67.0458C94.7539 68.833 95.3153 72.6037 96.513 73.6704C98.1036 75.0739 99.4135 75.6353 102.033 76.0096C102.033 76.0096 98.665 76.4774 96.9808 77.9745C95.2966 79.4716 94.9223 81.9979 94.4545 85.8809C94.4545 85.8809 94.0802 80.9686 92.4896 78.723C90.8989 76.4774 86.9504 75.9815 86.9504 75.9815C86.9504 75.9815 90.8989 75.4482 92.2089 73.6704C93.3317 72.1452 94.0428 69.3008 94.3422 67.102C91.6568 67.8037 89.2802 69.2821 87.4743 71.2751C86.3328 73.3055 85.5843 75.364 85.2849 77.1324C84.2556 83.2143 85.472 86.7698 87.8112 89.109C90.1504 91.4482 94.5948 94.0587 103.418 93.488C105.701 92.4962 107.676 90.9149 109.135 88.9312ZM108.536 77.4131C109.023 77.4131 109.425 77.8154 109.425 78.302C109.425 78.7885 109.023 79.1909 108.536 79.1909C108.05 79.1909 107.647 78.7885 107.647 78.302C107.647 77.8154 108.04 77.4131 108.536 77.4131Z" fill="#001125"/>
<path d="M110.333 87.0039C110.09 87.2659 109.912 87.584 109.781 87.977C109.977 87.6589 110.165 87.3314 110.333 87.0039Z" fill="#001125"/>
<path d="M104.934 68.5614C104.691 69.1415 104.56 69.7777 104.56 70.4421C104.56 73.1555 106.759 75.3544 109.472 75.3544C109.912 75.3544 110.342 75.2982 110.754 75.1859C112.85 74.6245 114.384 72.7158 114.384 70.4421C114.384 69.7216 114.225 69.0292 113.945 68.4117C113.495 67.7286 113.009 67.1204 112.504 66.5777C111.671 65.9228 110.614 65.5298 109.472 65.5298C107.423 65.5298 105.664 66.7836 104.934 68.5614Z" fill="white"/>
<path d="M94.3422 67.1018C94.0428 69.3007 93.3316 72.1451 92.2088 73.6703C90.8989 75.4481 86.9503 75.9814 86.9503 75.9814C86.9503 75.9814 90.8989 76.4773 92.4895 78.7229C94.0802 80.9685 94.4545 85.8808 94.4545 85.8808C94.9223 81.9978 95.2966 79.4715 96.9808 77.9744C98.665 76.4773 102.033 76.0095 102.033 76.0095C99.4135 75.6352 98.1036 75.0738 96.5129 73.6703C95.3153 72.613 94.7539 68.8422 94.548 67.0457C94.4825 66.4656 94.4545 66.0913 94.4545 66.0913C94.4264 66.4094 94.389 66.7463 94.3422 67.1018Z" fill="white"/>
<path d="M109.35 81.6519C109.266 82.6343 108.939 84.2062 108.368 84.9829C107.788 85.7688 106.057 86.0027 106.057 86.0027C106.057 86.0027 107.788 86.2179 108.49 87.2098C108.798 87.6495 109.004 88.3232 109.135 88.9408C109.294 89.6987 109.35 90.363 109.35 90.363C109.472 89.3899 109.575 88.6039 109.781 87.9957C109.912 87.6027 110.09 87.2846 110.333 87.0226C110.37 86.9758 110.417 86.9384 110.464 86.8916C111.203 86.2367 112.681 86.0308 112.681 86.0308C111.942 85.9279 111.437 85.7875 110.988 85.5349C110.735 85.3946 110.511 85.2261 110.258 85.0016C109.556 84.3653 109.35 81.6519 109.35 81.6519Z" fill="white"/>
<path d="M108.536 79.1909C109.027 79.1909 109.425 78.7929 109.425 78.302C109.425 77.8111 109.027 77.4131 108.536 77.4131C108.045 77.4131 107.647 77.8111 107.647 78.302C107.647 78.7929 108.045 79.1909 108.536 79.1909Z" fill="white"/>
<path d="M34.1128 102.956C38.4794 102.956 42.0193 101.658 42.0193 100.056C42.0193 98.4539 38.4794 97.1553 34.1128 97.1553C29.7462 97.1553 26.2064 98.4539 26.2064 100.056C26.2064 101.658 29.7462 102.956 34.1128 102.956Z" fill="#EB4F69"/>
<path d="M107.75 102.956C112.117 102.956 115.657 101.658 115.657 100.056C115.657 98.4539 112.117 97.1553 107.75 97.1553C103.384 97.1553 99.8439 98.4539 99.8439 100.056C99.8439 101.658 103.384 102.956 107.75 102.956Z" fill="#EB4F69"/>
<path d="M87.1469 101.806C85.9773 101.263 84.1246 101.263 84.1246 101.263H84.1059C84.1059 101.263 82.7305 104.463 81.5141 104.463C80.6813 104.463 80.5129 102.508 80.4755 101.263H61.107C61.079 102.508 60.9012 104.463 60.0684 104.463C58.8521 104.463 57.4766 101.263 57.4766 101.263H57.2708C55.1 101.263 54.4263 101.778 53.7526 102.321C53.0789 102.863 52.2649 104.95 53.7526 109.113C54.1363 110.19 54.5386 111.069 54.9597 111.808C59.6287 106.859 70.7071 107.223 70.7071 107.223C83.4416 107.223 86.6229 111.761 86.6229 111.761C87.1001 110.919 87.4556 110.133 87.7457 109.497C88.5597 107.738 88.8124 104.398 88.672 103.79C88.5317 103.181 88.3164 102.349 87.1469 101.806Z" fill="#EB4F69"/>
<path d="M70.7071 107.224C70.7071 107.224 59.6287 106.859 54.9597 111.809C55.2497 112.323 55.5585 112.772 55.8766 113.184C55.8766 113.184 60.6673 119.762 70.81 119.762C80.9527 119.762 85.734 113.147 85.734 113.147C86.0708 112.679 86.3609 112.22 86.6135 111.771C86.6229 111.762 83.4416 107.224 70.7071 107.224Z" fill="#FFA2B4"/>
<path d="M60.0778 104.454C60.9105 104.454 61.079 102.499 61.1164 101.254H57.486C57.486 101.254 58.8614 104.454 60.0778 104.454Z" fill="#DFDFDF"/>
<path d="M81.5141 104.454C82.7305 104.454 84.106 101.254 84.106 101.254H80.4755C80.513 102.499 80.6907 104.454 81.5141 104.454Z" fill="#DFDFDF"/>
</g>
<defs>
<clipPath id="clip0_211_2103">
<rect width="141.75" height="139.543" fill="white"/>
</clipPath>
</defs>
</svg>
